<?xml version="1.0" encoding="UTF-8" standalone="no"?>
<!-- Generator: Adobe Illustrator 25.1.0, SVG Export Plug-In . SVG Version: 6.00 Build 0)  -->

<svg
   version="1.1"
   id="Laag_1"
   x="0px"
   y="0px"
   viewBox="0 0 389.7638 389.76401"
   xml:space="preserve"
   sodipodi:docname="logo-aria.svg"
   inkscape:version="1.3.1 (9b9bdc1480, 2023-11-25, custom)"
   width="389.76379"
   height="389.76401"
   xmlns:inkscape="http://www.inkscape.org/namespaces/inkscape"
   xmlns:sodipodi="http://sodipodi.sourceforge.net/DTD/sodipodi-0.dtd"
   xmlns="http://www.w3.org/2000/svg"
   xmlns:svg="http://www.w3.org/2000/svg"><defs
   id="defs60" /><sodipodi:namedview
   id="namedview60"
   pagecolor="#ffffff"
   bordercolor="#000000"
   borderopacity="0.25"
   inkscape:showpageshadow="2"
   inkscape:pageopacity="0.0"
   inkscape:pagecheckerboard="0"
   inkscape:deskcolor="#d1d1d1"
   showgrid="false"
   inkscape:zoom="1.4444644"
   inkscape:cx="194.53577"
   inkscape:cy="272.76546"
   inkscape:window-width="1366"
   inkscape:window-height="704"
   inkscape:window-x="0"
   inkscape:window-y="0"
   inkscape:window-maximized="1"
   inkscape:current-layer="Laag_1" />
<style
   type="text/css"
   id="style1">
	.st0{fill:#FFFFFF;}
	.st1{fill:none;}
</style>
























<g
   id="g1"
   transform="translate(0,143.882)"><path
     class="st0"
     d="m 135.48651,29.54509 c -4.04687,0 -7.27832,-2.101563 -7.27832,-6.4375 V 11.362473 h 3.7832 v 11.298828 c 0,2.83789 2.12891,3.915039 3.94141,3.915039 1.94434,0 3.75781,-1.077149 3.75781,-3.810547 v -11.40332 h 3.73145 v 11.40332 c 0,4.415039 -3.15332,6.779297 -7.93555,6.779297 z"
     id="path1"
     style="fill:#000000" /><path
     class="st0"
     d="m 156.19647,29.22966 v -8.092773 c 0,-1.865235 -0.99804,-2.811524 -2.65332,-2.811524 -0.94629,0 -1.86523,0.289063 -2.52246,0.709961 V 29.22966 h -3.49512 V 15.961105 l 3.36328,-0.262695 -0.0517,1.838867 h 0.10449 c 0.97266,-1.077148 2.57519,-2.023437 4.41504,-2.023437 2.36426,0 4.30859,1.577148 4.30859,4.598632 v 9.117188 z"
     id="path2"
     style="fill:#000000" /><path
     class="st0"
     d="m 165.10858,13.359543 c -0.99902,0 -1.83984,-0.840821 -1.83984,-1.865235 0,-1.02539 0.84082,-1.8134762 1.83984,-1.8134762 1.02442,0 1.83887,0.7880862 1.83887,1.8134762 0,1.024415 -0.81445,1.865235 -1.83887,1.865235 z M 163.34784,29.22966 V 15.829269 h 3.52148 V 29.22966 Z"
     id="path3"
     style="fill:#000000" /><path
     class="st0"
     d="m 177.06561,29.308762 h -2.94336 L 168.7619,15.829269 h 3.94141 l 2.3916,7.094727 c 0.39355,1.103516 0.70898,2.995117 0.70898,2.995117 0,0 0.31543,-1.865234 0.70996,-2.995117 l 2.39063,-7.094727 h 3.54687 z"
     id="path4"
     style="fill:#000000" /><path
     class="st0"
     d="m 195.54022,23.028488 h -8.88086 c 0.0791,2.207031 1.55078,3.888672 4.02051,3.888672 1.57617,0 2.99512,-0.34082 4.57129,-0.945312 l -0.15723,2.469726 c -1.6289,0.657227 -3.23144,1.077149 -5.36035,1.077149 -4.02051,0 -6.46387,-2.785157 -6.46387,-6.726563 0,-4.283203 2.78516,-7.27832 6.72657,-7.27832 3.81054,0 5.67578,2.601562 5.67578,5.596679 0,0.604493 -0.0527,1.445313 -0.13184,1.917969 z m -5.83301,-5.228516 c -1.68164,0 -2.73242,1.60254 -2.91601,3.206055 h 5.64844 c 0,-1.760742 -0.99805,-3.206055 -2.73243,-3.206055 z"
     id="path5"
     style="fill:#000000" /><path
     class="st0"
     d="m 206.2912,19.481613 c -0.6836,-0.394531 -1.57617,-0.657226 -2.41699,-0.657226 -0.81446,0 -1.60352,0.341796 -2.04981,0.814453 v 9.59082 h -3.49512 V 15.961105 l 3.31153,-0.289062 -0.10547,2.390625 h 0.10547 c 0.68262,-1.498047 1.9707,-2.548828 3.41504,-2.548828 0.63086,0 1.34082,0.158203 1.78711,0.420898 z"
     id="path6"
     style="fill:#000000" /><path
     class="st0"
     d="m 212.04803,29.518722 c -1.73437,0 -3.12695,-0.367187 -4.2832,-0.998046 l 0.39453,-2.62793 c 1.20801,0.630859 2.70606,1.050781 3.99414,1.050781 1.10352,0 2.10157,-0.367187 2.10157,-1.339844 0,-2.127929 -6.06934,-1.655273 -6.06934,-5.938476 0,-2.706055 2.46973,-4.151367 5.33398,-4.151367 1.41895,0 2.88965,0.394531 3.86231,0.814453 l -0.39453,2.52246 c -1.02442,-0.393554 -2.39063,-0.761718 -3.65235,-0.761718 -0.94531,0 -1.75976,0.368164 -1.75976,1.129882 0,2.101563 6.0957,1.681641 6.0957,5.91211 0,2.916016 -2.54883,4.387695 -5.62305,4.387695 z"
     id="path7"
     style="fill:#000000" /><path
     class="st0"
     d="m 222.19257,13.359543 c -0.99903,0 -1.83985,-0.840821 -1.83985,-1.865235 0,-1.02539 0.84082,-1.8134762 1.83985,-1.8134762 1.02441,0 1.83886,0.7880862 1.83886,1.8134762 0,1.024415 -0.81445,1.865235 -1.83886,1.865235 z M 220.43182,29.22966 V 15.829269 h 3.52149 V 29.22966 Z"
     id="path8"
     style="fill:#000000" /><path
     class="st0"
     d="m 231.75897,29.518722 c -2.36426,0 -3.88867,-1.471679 -3.88867,-3.730468 0,-0.762696 0.0791,-4.256836 0.0791,-6.359375 v -1.129883 h -1.26172 v -1.366211 l 4.33594,-4.020508 h 0.3418 v 2.916992 h 4.25586 v 2.469727 h -4.25586 c 0,0.209961 -0.0527,4.493164 -0.0527,6.306641 0,1.418945 0.84082,2.048828 2.12793,2.048828 0.6836,0 1.49805,-0.07813 2.28614,-0.340821 v 2.416993 c -1.12989,0.472656 -2.46973,0.788085 -3.96778,0.788085 z"
     id="path9"
     style="fill:#000000" /><path
     class="st0"
     d="m 244.50507,29.256027 c -1.41895,3.625977 -3.41602,6.75293 -6.67383,6.75293 -1.05078,0 -1.99707,-0.262695 -2.5752,-0.604492 l 0.55176,-2.522461 c 0.55176,0.209961 1.18262,0.341797 1.8916,0.341797 1.81348,0 3.02246,-2.390625 3.75781,-4.125 L 236.1496,15.829269 h 3.9414 l 2.44336,6.962891 c 0.36817,1.077148 0.6836,3.021484 0.6836,3.021484 0,0 0.39355,-1.891601 0.76172,-3.021484 l 2.25976,-6.962891 h 3.49414 z"
     id="path10"
     style="fill:#000000" /><path
     class="st0"
     d="m 262.69159,29.518722 c -4.0459,0 -6.64746,-2.995117 -6.64746,-6.779296 0,-4.230469 2.78515,-7.225586 7.19922,-7.225586 4.04687,0 6.64843,2.995117 6.64843,6.779297 0,4.230468 -2.81152,7.225585 -7.20019,7.225585 z m 0.2373,-11.429687 c -2.02343,0 -3.28515,1.917969 -3.28515,4.335937 0,2.44336 1.31445,4.518555 3.36328,4.518555 1.9707,0 3.31152,-1.917969 3.31152,-4.308594 0,-2.469726 -1.31445,-4.545898 -3.38965,-4.545898 z"
     id="path11"
     style="fill:#000000" /><path
     class="st0"
     d="m 279.95917,11.519699 c -0.49903,-0.183594 -1.12989,-0.34082 -1.70801,-0.34082 -0.99902,0 -1.78711,0.603515 -1.78711,2.127929 v 2.522461 h 3.25879 v 2.522461 h -3.25879 v 10.87793 h -3.49414 V 18.35173 h -1.68164 v -2.127929 l 1.68164,-0.394532 v -2.365234 c 0,-3.074219 2.18066,-4.9394531 5.09766,-4.9394531 0.89257,0 1.83886,0.2626953 2.39062,0.5517578 z"
     id="path12"
     style="fill:#000000" /><path
     class="st0"
     d="m 298.80194,29.22966 -1.62891,-4.703125 h -5.96484 l -1.57617,4.703125 h -3.86328 l 6.49023,-17.867188 h 4.15137 l 6.49023,17.867188 z m -4.17773,-12.612305 c -0.23633,-0.708984 -0.44727,-2.101562 -0.44727,-2.101562 0,0 -0.20996,1.339844 -0.47266,2.101562 l -1.83886,5.360352 h 4.62402 z"
     id="path13"
     style="fill:#000000" /><path
     class="st0"
     d="m 313.65155,29.22966 v -8.092773 c 0,-1.865235 -0.99805,-2.811524 -2.65332,-2.811524 -0.94629,0 -1.86523,0.289063 -2.52246,0.709961 V 29.22966 h -3.49512 V 15.961105 l 3.36328,-0.262695 -0.0518,1.838867 h 0.10449 c 0.97265,-1.077148 2.57519,-2.023437 4.41504,-2.023437 2.36425,0 4.30859,1.577148 4.30859,4.598632 v 9.117188 z"
     id="path14"
     style="fill:#000000" /><path
     class="st0"
     d="m 324.71796,29.518722 c -2.36426,0 -3.88868,-1.471679 -3.88868,-3.730468 0,-0.762696 0.0791,-4.256836 0.0791,-6.359375 v -1.129883 h -1.26172 v -1.366211 l 4.33593,-4.020508 h 0.3418 v 2.916992 h 4.25586 v 2.469727 h -4.25586 c 0,0.209961 -0.0527,4.493164 -0.0527,6.306641 0,1.418945 0.84082,2.048828 2.12793,2.048828 0.68359,0 1.49804,-0.07813 2.28613,-0.340821 v 2.416993 c -1.12988,0.472656 -2.46973,0.788085 -3.96777,0.788085 z"
     id="path15"
     style="fill:#000000" /><path
     class="st0"
     d="m 345.74139,29.308762 h -2.78515 l -2.54883,-6.647461 c -0.39453,-1.025391 -0.65723,-2.785156 -0.65723,-2.785156 0,0 -0.39453,1.733398 -0.76172,2.785156 l -2.4707,6.647461 h -2.70605 l -4.59766,-13.479493 h 3.83594 l 1.8916,6.595704 c 0.31543,1.050781 0.63086,3.074218 0.63086,3.074218 0,0 0.39355,-1.970703 0.76172,-3.048828 l 2.33886,-6.621094 h 2.5752 l 2.44336,6.621094 c 0.41992,1.078125 0.73535,2.996094 0.73535,2.996094 0,0 0.28906,-1.970703 0.63086,-3.047852 l 1.86523,-6.569335 h 3.44239 z"
     id="path16"
     style="fill:#000000" /><path
     class="st0"
     d="m 363.6662,23.028488 h -8.88086 c 0.0791,2.207031 1.55078,3.888672 4.02051,3.888672 1.57617,0 2.99511,-0.34082 4.57129,-0.945312 l -0.15723,2.469726 c -1.62891,0.657227 -3.23145,1.077149 -5.36035,1.077149 -4.02051,0 -6.46387,-2.785157 -6.46387,-6.726563 0,-4.283203 2.78516,-7.27832 6.72656,-7.27832 3.81055,0 5.67578,2.601562 5.67578,5.596679 0,0.604493 -0.0527,1.445313 -0.13183,1.917969 z m -5.83301,-5.228516 c -1.68164,0 -2.73242,1.60254 -2.91601,3.206055 h 5.64843 c 0,-1.760742 -0.99804,-3.206055 -2.73242,-3.206055 z"
     id="path17"
     style="fill:#000000" /><path
     class="st0"
     d="m 374.4162,19.481613 c -0.6836,-0.394531 -1.57617,-0.657226 -2.41699,-0.657226 -0.81446,0 -1.60352,0.341796 -2.04981,0.814453 v 9.59082 h -3.49512 V 15.961105 l 3.31153,-0.289062 -0.10547,2.390625 h 0.10547 c 0.68262,-1.498047 1.9707,-2.548828 3.41504,-2.548828 0.63086,0 1.34082,0.158203 1.78711,0.420898 z"
     id="path18"
     style="fill:#000000" /><path
     class="st0"
     d="m 382.4328,29.41423 c -0.73633,0 -1.55078,-0.18457 -1.99707,-0.420898 v 6.936523 h -3.49512 v -19.96875 l 3.36328,-0.262695 -0.0518,1.786133 h 0.10449 c 0.97265,-1.182617 2.49609,-1.970703 3.99414,-1.970703 3.31055,0 5.41308,2.811523 5.41308,6.542968 0,4.414063 -2.86425,7.357422 -7.33105,7.357422 z m 0.39355,-11.141601 c -0.89257,0 -1.78613,0.289062 -2.39062,0.709961 v 7.382812 c 0.49902,0.341797 1.39258,0.578125 2.1543,0.578125 2.3125,0 3.62597,-1.838867 3.62597,-4.282226 0,-2.733399 -1.33984,-4.388672 -3.38965,-4.388672 z"
     id="path19"
     style="fill:#000000" /><g
     id="g57"
     style="fill:#000000">
	<path
   class="st0"
   d="m 158.91817,62.664513 -0.77442,-4.340821 h -3.90722 l -0.77539,4.340821 h -3.44141 l 4.09277,-19.378418 h 4.1543 l 4.09375,19.378418 z m -2.72852,-15.224122 -1.39551,7.813477 h 2.79102 z"
   id="path20"
   style="fill:#000000" />
	<path
   class="st0"
   d="m 171.69063,62.664513 -2.4502,-7.007325 -1.36425,0.186036 v 6.821289 h -3.41016 V 43.286095 h 4.58887 c 3.96875,0 5.67382,2.356445 5.67382,5.953125 0,2.51123 -0.93066,4.495605 -2.41894,5.394531 l 2.97656,8.030762 z m -3.28711,-9.891114 c 1.95312,-0.124023 2.79101,-1.11621 2.79101,-3.379394 0,-2.232422 -0.93066,-3.038574 -2.72851,-3.038574 h -0.58985 v 6.449218 z"
   id="path21"
   style="fill:#000000" />
	<path
   class="st0"
   d="M 177.54805,62.664513 V 43.286095 h 3.41016 v 19.378418 z"
   id="path22"
   style="fill:#000000" />
	<path
   class="st0"
   d="m 192.02559,62.664513 -0.77442,-4.340821 h -3.90722 l -0.77539,4.340821 h -3.44141 l 4.09277,-19.378418 h 4.1543 l 4.09375,19.378418 z m -2.72852,-15.224122 -1.3955,7.813477 h 2.79101 z"
   id="path23"
   style="fill:#000000" />
	<path
   class="st0"
   d="m 232.09688,62.664513 -1.02344,-4.9917 h -4.46484 l -1.02246,4.9917 h -2.35645 l 4.34082,-19.378418 h 2.54199 l 4.34082,19.378418 z m -3.25586,-15.812989 -1.79785,8.681641 h 3.59668 z"
   id="path24"
   style="fill:#000000" />
	<path
   class="st0"
   d="M 242.72969,62.664513 V 52.060509 c 0,-1.302246 -0.55859,-1.860352 -1.45703,-1.860352 -0.74414,0 -1.58203,0.712891 -2.26367,1.643555 v 10.820801 h -2.20117 V 48.525841 l 2.20117,-0.402832 v 1.829101 c 0.74414,-1.271484 1.95312,-1.891601 3.03906,-1.891601 1.85938,0 2.88281,1.705566 2.88281,3.565918 v 11.038086 z"
   id="path25"
   style="fill:#000000" />
	<path
   class="st0"
   d="m 253.7961,62.416466 c -0.58887,0.402832 -1.42578,0.650879 -2.0459,0.650879 -1.58106,0 -3.10059,-0.805664 -3.10059,-4.402344 v -8.061523 l -1.42676,-0.155274 v -1.488281 l 1.42676,-0.558106 V 45.20797 h 2.20117 v 3.255859 h 2.85254 l -0.12402,1.984375 h -2.72852 v 8.433594 c 0,1.643555 0.5586,2.17041 1.27149,2.17041 0.46484,0 1.02344,-0.310059 1.39453,-0.650879 z"
   id="path26"
   style="fill:#000000" />
	<path
   class="st0"
   d="m 264.52264,62.757774 -2.01562,-10.728515 -2.01563,10.728515 h -2.23242 l -2.7285,-14.293945 h 2.20116 l 1.73633,10.728027 1.98437,-10.728027 h 2.1084 l 1.98437,10.728027 1.73633,-10.728027 h 2.20215 l -2.72851,14.293945 z"
   id="path27"
   style="fill:#000000" />
	<path
   class="st0"
   d="m 278.96796,61.734337 c -0.77539,0.836914 -1.61231,1.333008 -2.97657,1.333008 -3.06933,0 -4.71289,-2.541993 -4.71289,-7.472168 0,-4.9917 1.98438,-7.534668 4.52735,-7.534668 2.57324,0 3.7207,2.139648 3.7207,5.767578 0,0.37207 -0.0625,1.549805 -0.15527,2.169922 h -5.8291 c 0.0615,3.441894 0.86816,5.084961 2.69726,5.084961 0.96094,0 1.61231,-0.620118 2.23242,-1.457032 z m -1.55078,-7.999512 c 0,-2.666504 -0.61915,-3.689941 -1.73633,-3.689941 -1.08496,0 -1.98438,1.519531 -2.10742,4.216797 h 3.84375 z"
   id="path28"
   style="fill:#000000" />
	<path
   class="st0"
   d="M 282.43866,62.664513 V 48.525841 l 2.20117,-0.402832 v 2.51123 c 0.4961,-1.612304 1.33301,-2.57373 2.48047,-2.57373 0.55762,0 1.08496,0.279297 1.51953,0.651367 l -0.46582,2.294434 c -0.37207,-0.341309 -0.80566,-0.682129 -1.27051,-0.682129 -0.80664,0 -1.64355,1.208984 -2.26367,3.410644 v 8.929688 z"
   id="path29"
   style="fill:#000000" />
	<path
   class="st0"
   d="M 290.8078,69.609825 V 48.525841 l 2.20117,-0.402832 v 1.643066 c 0.58985,-0.992187 1.55078,-1.705566 2.60449,-1.705566 2.3877,0 3.87598,2.976562 3.87598,7.317383 0,4.620117 -1.70508,7.689453 -4.37207,7.689453 -0.83691,0 -1.51855,-0.185547 -2.1084,-0.557618 v 7.100098 z m 2.20117,-9.332519 c 0.40332,0.464843 1.02344,0.805664 1.64356,0.805664 1.6123,0 2.54199,-2.293946 2.54199,-5.549805 0,-3.100586 -0.86719,-5.270996 -2.35547,-5.270996 -0.71387,0 -1.36523,0.558105 -1.83008,1.395019 z"
   id="path30"
   style="fill:#000000" />
	<path
   class="st0"
   d="m 314.98944,62.664513 -2.72851,-7.782715 -1.92286,0.279297 v 7.503418 h -2.32519 V 43.286095 h 3.25586 c 4.09179,0 5.61133,2.293945 5.61133,5.673828 0,2.387695 -0.99219,4.402832 -2.44922,5.240234 l 2.97656,8.464356 z m -4.15527,-9.73584 c 2.57324,-0.248047 3.65918,-1.364258 3.65918,-3.96875 0,-2.573242 -1.14746,-3.534668 -3.47266,-3.534668 h -0.68262 v 7.534668 z"
   id="path31"
   style="fill:#000000" />
	<path
   class="st0"
   d="m 326.95526,61.734337 c -0.77539,0.836914 -1.6123,1.333008 -2.97656,1.333008 -3.06934,0 -4.71289,-2.541993 -4.71289,-7.472168 0,-4.9917 1.98437,-7.534668 4.52637,-7.534668 2.57421,0 3.7207,2.139648 3.7207,5.767578 0,0.37207 -0.0615,1.549805 -0.1543,2.169922 h -5.83008 c 0.0625,3.441894 0.86914,5.084961 2.69825,5.084961 0.96093,0 1.6123,-0.620118 2.23242,-1.457032 z m -1.55078,-7.999512 c 0,-2.666504 -0.62012,-3.689941 -1.73633,-3.689941 -1.08496,0 -1.98437,1.519531 -2.1084,4.216797 h 3.84473 z"
   id="path32"
   style="fill:#000000" />
	<path
   class="st0"
   d="m 330.23944,59.998009 c 0.83691,0.682129 1.73633,1.116211 2.63574,1.116211 1.17774,0 1.8916,-0.868165 1.8916,-2.015625 0,-1.146973 -0.62109,-1.921875 -2.10937,-2.79004 -1.8291,-1.085449 -2.91406,-2.356445 -2.91406,-4.40332 0,-2.293945 1.73633,-3.844726 3.90625,-3.844726 1.14746,0 2.20215,0.465332 2.88379,0.961425 l -0.46485,1.984375 c -0.77539,-0.558105 -1.58105,-0.961425 -2.44922,-0.961425 -1.02343,0 -1.76757,0.682617 -1.76757,1.829589 0,1.08545 0.46484,1.79834 1.98437,2.728516 1.79785,1.116211 3.03809,2.387207 3.03809,4.464844 0,2.387207 -1.73633,3.999511 -3.9375,3.999511 -1.14649,0 -2.3252,-0.433593 -3.16211,-1.08496 z"
   id="path33"
   style="fill:#000000" />
	<path
   class="st0"
   d="m 346.85663,61.734337 c -0.77539,0.836914 -1.61231,1.333008 -2.97656,1.333008 -3.07032,0 -4.71289,-2.541993 -4.71289,-7.472168 0,-4.9917 1.98437,-7.534668 4.52636,-7.534668 2.57324,0 3.72071,2.139648 3.72071,5.767578 0,0.37207 -0.0615,1.549805 -0.15528,2.169922 h -5.82812 c 0.0615,3.441894 0.86718,5.084961 2.69726,5.084961 0.96094,0 1.61231,-0.620118 2.23242,-1.457032 z m -1.55078,-7.999512 c 0,-2.666504 -0.62012,-3.689941 -1.73633,-3.689941 -1.08496,0 -1.98438,1.519531 -2.1084,4.216797 h 3.84473 z"
   id="path34"
   style="fill:#000000" />
	<path
   class="st0"
   d="m 358.26483,62.943321 c -1.58203,0.186524 -2.57422,-0.278808 -2.94629,-1.457031 h -0.12402 c -0.43359,0.868164 -1.24024,1.581055 -2.60449,1.581055 -1.64356,0 -2.94532,-1.612305 -2.94532,-3.844727 0,-2.604492 1.67481,-4.991699 5.54981,-5.333008 v -1.270996 c 0,-1.488281 -0.52734,-2.54248 -1.92188,-2.54248 -0.83789,0 -2.01562,0.682129 -2.91504,1.643554 l -0.34082,-2.077636 c 0.86817,-0.992188 2.3252,-1.581543 3.53516,-1.581543 2.69727,0 3.84375,2.170898 3.84375,4.464843 v 7.534668 c 0,0.713379 0.2793,1.02295 1.05469,1.02295 z m -3.07031,-7.378906 c -2.38672,0.402832 -3.28613,1.860352 -3.28613,3.410156 0,1.333496 0.65136,1.984375 1.5498,1.984375 0.65137,0 1.30274,-0.68164 1.73633,-1.395019 z"
   id="path35"
   style="fill:#000000" />
	<path
   class="st0"
   d="M 361.23846,62.664513 V 48.525841 l 2.20118,-0.402832 v 2.51123 c 0.49609,-1.612304 1.333,-2.57373 2.48047,-2.57373 0.55859,0 1.08496,0.279297 1.51953,0.651367 l -0.46485,2.294434 c -0.37207,-0.341309 -0.80664,-0.682129 -1.27148,-0.682129 -0.80567,0 -1.64356,1.208984 -2.26367,3.410644 v 8.929688 z"
   id="path36"
   style="fill:#000000" />
	<path
   class="st0"
   d="m 376.24335,61.734337 c -0.71289,0.836914 -1.73633,1.333008 -2.97657,1.333008 -2.97656,0 -4.68164,-2.541993 -4.68164,-7.472168 0,-4.898926 1.73633,-7.534668 4.80567,-7.534668 1.20898,0 2.13965,0.465332 2.88379,1.240234 l -0.52735,2.20166 c -0.49609,-0.806152 -1.45703,-1.457519 -2.23242,-1.457519 -1.86035,0 -2.63574,1.891601 -2.63574,5.519531 0,3.720703 0.80664,5.518555 2.72852,5.518555 0.80664,0 1.55078,-0.620118 2.13964,-1.457032 z"
   id="path37"
   style="fill:#000000" />
	<path
   class="st0"
   d="M 384.92303,62.664513 V 52.060509 c 0,-1.302246 -0.55859,-1.860352 -1.45703,-1.860352 -0.74414,0 -1.58203,0.712891 -2.26367,1.643555 v 10.820801 h -2.20117 v -20.89795 l 2.20117,-0.40332 v 8.588867 c 0.74414,-1.271484 1.95313,-1.891601 3.03906,-1.891601 1.85938,0 2.88282,1.705566 2.88282,3.565918 v 11.038086 z"
   id="path38"
   style="fill:#000000" />
	<path
   class="st0"
   d="M 151.60078,90.26461 V 70.885704 h 2.32618 V 90.26461 Z"
   id="path39"
   style="fill:#000000" />
	<path
   class="st0"
   d="M 163.72285,90.26461 V 79.660606 c 0,-1.302246 -0.55761,-1.860351 -1.45703,-1.860351 -0.74414,0 -1.58105,0.713379 -2.26367,1.643066 V 90.26461 h -2.20117 V 76.125938 l 2.20117,-0.40332 v 1.82959 c 0.74414,-1.270996 1.9541,-1.891113 3.03906,-1.891113 1.86036,0 2.88379,1.705078 2.88379,3.565429 V 90.26461 Z"
   id="path40"
   style="fill:#000000" />
	<path
   class="st0"
   d="m 169.20821,87.598106 c 0.83789,0.682129 1.73632,1.116211 2.63574,1.116211 1.17871,0 1.8916,-0.868164 1.8916,-2.015136 0,-1.147461 -0.62012,-1.922852 -2.1084,-2.791016 -1.8291,-1.084961 -2.91504,-2.356445 -2.91504,-4.402344 0,-2.294922 1.73633,-3.844726 3.90723,-3.844726 1.14746,0 2.20117,0.464843 2.88379,0.960937 l -0.46485,1.984375 c -0.77539,-0.558105 -1.58203,-0.960937 -2.45019,-0.960937 -1.02246,0 -1.7666,0.68164 -1.7666,1.829101 0,1.084961 0.46484,1.79834 1.98437,2.728516 1.79785,1.116211 3.03809,2.387695 3.03809,4.464844 0,2.387695 -1.73633,4 -3.9375,4 -1.14746,0 -2.3252,-0.434571 -3.16309,-1.08545 z"
   id="path41"
   style="fill:#000000" />
	<path
   class="st0"
   d="m 183.7795,90.016563 c -0.58887,0.403321 -1.42676,0.651368 -2.0459,0.651368 -1.58203,0 -3.10157,-0.806641 -3.10157,-4.403321 v -8.061523 l -1.42578,-0.154785 V 76.56002 l 1.42578,-0.558105 v -3.193359 h 2.20215 v 3.255371 h 2.85254 l -0.12402,1.984375 h -2.72852 v 8.433593 c 0,1.643067 0.55762,2.170411 1.27051,2.170411 0.46582,0 1.02344,-0.310059 1.39551,-0.651368 z"
   id="path42"
   style="fill:#000000" />
	<path
   class="st0"
   d="m 185.66914,71.072227 c 0,-0.961425 0.5586,-1.798828 1.58106,-1.798828 1.02344,0 1.58105,0.837403 1.58105,1.798828 0,0.960938 -0.55761,1.797852 -1.58105,1.797852 -1.02246,0 -1.58106,-0.836914 -1.58106,-1.797852 z m 0.46485,19.192383 V 76.125938 l 2.20117,-0.40332 V 90.26461 Z"
   id="path43"
   style="fill:#000000" />
	<path
   class="st0"
   d="m 197.32637,90.016563 c -0.58887,0.403321 -1.42676,0.651368 -2.04687,0.651368 -1.58106,0 -3.10059,-0.806641 -3.10059,-4.403321 v -8.061523 l -1.42578,-0.154785 V 76.56002 l 1.42578,-0.558105 v -3.193359 h 2.20117 v 3.255371 h 2.85352 l -0.125,1.984375 h -2.72852 v 8.433593 c 0,1.643067 0.5586,2.170411 1.27149,2.170411 0.46484,0 1.02343,-0.310059 1.3955,-0.651368 z"
   id="path44"
   style="fill:#000000" />
	<path
   class="st0"
   d="m 205.47871,90.605431 v -1.829102 c -0.74414,1.271484 -1.95312,1.891602 -3.03808,1.891602 -1.86133,0 -2.88379,-1.705567 -2.88379,-3.565918 V 76.063927 h 2.20117 v 10.604004 c 0,1.302246 0.55762,1.860351 1.45703,1.860351 0.74414,0 1.55078,-0.71289 2.26367,-1.643555 v -10.8208 h 2.20118 v 14.138672 z"
   id="path45"
   style="fill:#000000" />
	<path
   class="st0"
   d="m 216.60762,90.016563 c -0.58887,0.403321 -1.42676,0.651368 -2.0459,0.651368 -1.58203,0 -3.10156,-0.806641 -3.10156,-4.403321 v -8.061523 l -1.42578,-0.154785 V 76.56002 l 1.42578,-0.558105 v -3.193359 h 2.20215 v 3.255371 h 2.85254 l -0.12403,1.984375 h -2.72851 v 8.433593 c 0,1.643067 0.55762,2.170411 1.27051,2.170411 0.46582,0 1.02343,-0.310059 1.3955,-0.651368 z"
   id="path46"
   style="fill:#000000" />
	<path
   class="st0"
   d="m 225.7834,89.334434 c -0.77441,0.837403 -1.6123,1.333497 -2.97656,1.333497 -3.06934,0 -4.71289,-2.542969 -4.71289,-7.472657 0,-4.992187 1.98437,-7.534179 4.52734,-7.534179 2.57324,0 3.72071,2.13916 3.72071,5.766601 0,0.372071 -0.0625,1.550782 -0.15528,2.170899 h -5.8291 c 0.0615,3.441406 0.86816,5.084961 2.69727,5.084961 0.96191,0 1.6123,-0.620118 2.23242,-1.45752 z m -1.5498,-7.999511 c 0,-2.666504 -0.62012,-3.689453 -1.73633,-3.689453 -1.08594,0 -1.98438,1.519043 -2.1084,4.216797 h 3.84473 z"
   id="path47"
   style="fill:#000000" />
	<path
   class="st0"
   d="M 234.83418,90.26461 V 78.203087 l -1.42676,-0.154785 V 76.56002 l 1.42676,-0.558105 v -2.666504 c 0,-3.720703 1.51953,-4.650879 3.22461,-4.650879 0.68262,0 1.33301,0.216797 1.98438,0.620117 l -0.43457,2.015625 c -0.4336,-0.341308 -0.86719,-0.589355 -1.27051,-0.589355 -0.77539,0 -1.30274,0.558105 -1.30274,2.387207 v 2.945801 h 2.54297 l -0.12402,1.984375 h -2.41895 V 90.26461 Z"
   id="path48"
   style="fill:#000000" />
	<path
   class="st0"
   d="m 240.69258,83.195274 c 0,-4.898925 1.70508,-7.534179 4.68164,-7.534179 2.97656,0 4.58985,2.541992 4.58985,7.472168 0,4.898926 -1.76758,7.534668 -4.68262,7.534668 -2.94531,0 -4.58887,-2.542969 -4.58887,-7.472657 z m 6.97656,0 c 0,-3.720703 -0.74414,-5.549804 -2.35644,-5.549804 -1.61231,0 -2.3252,1.891113 -2.3252,5.518554 0,3.720703 0.71289,5.519532 2.3252,5.519532 1.6123,0 2.35644,-1.922852 2.35644,-5.488282 z"
   id="path49"
   style="fill:#000000" />
	<path
   class="st0"
   d="M 252.9377,90.26461 V 76.125938 l 2.20215,-0.40332 v 2.511719 c 0.49609,-1.612305 1.33299,-2.573242 2.48045,-2.573242 0.55762,0 1.08496,0.278808 1.51855,0.650879 l -0.46484,2.294433 c -0.37207,-0.34082 -0.80566,-0.682129 -1.27148,-0.682129 -0.80567,0 -1.64354,1.209473 -2.26268,3.410645 v 8.929687 z"
   id="path50"
   style="fill:#000000" />
	<path
   class="st0"
   d="m 272.03436,90.016563 c -0.58886,0.403321 -1.42578,0.651368 -2.0459,0.651368 -1.58105,0 -3.10058,-0.806641 -3.10058,-4.403321 v -8.061523 l -1.42676,-0.154785 V 76.56002 l 1.42676,-0.558105 v -3.193359 h 2.20117 v 3.255371 h 2.85254 l -0.12402,1.984375 h -2.72852 v 8.433593 c 0,1.643067 0.55859,2.170411 1.27148,2.170411 0.46485,0 1.02344,-0.310059 1.39454,-0.651368 z"
   id="path51"
   style="fill:#000000" />
	<path
   class="st0"
   d="M 280.24921,90.26461 V 79.660606 c 0,-1.302246 -0.5586,-1.860351 -1.45703,-1.860351 -0.74415,0 -1.58204,0.713379 -2.26368,1.643066 V 90.26461 h -2.20117 V 69.366661 l 2.20117,-0.402832 v 8.588379 c 0.74414,-1.270996 1.95313,-1.891113 3.03907,-1.891113 1.85937,0 2.88281,1.705078 2.88281,3.565429 V 90.26461 Z"
   id="path52"
   style="fill:#000000" />
	<path
   class="st0"
   d="m 293.05194,89.334434 c -0.77441,0.837403 -1.61133,1.333497 -2.97656,1.333497 -3.06934,0 -4.71289,-2.542969 -4.71289,-7.472657 0,-4.992187 1.98437,-7.534179 4.52734,-7.534179 2.57324,0 3.7207,2.13916 3.7207,5.766601 0,0.372071 -0.0625,1.550782 -0.15527,2.170899 h -5.8291 c 0.0625,3.441406 0.86816,5.084961 2.69727,5.084961 0.96191,0 1.61328,-0.620118 2.23242,-1.45752 z m -1.5498,-7.999511 c 0,-2.666504 -0.62012,-3.689453 -1.73633,-3.689453 -1.08496,0 -1.98438,1.519043 -2.1084,4.216797 h 3.84473 z"
   id="path53"
   style="fill:#000000" />
	<path
   class="st0"
   d="m 308.92499,90.26461 -1.02344,-4.992187 h -4.46484 l -1.02344,4.992187 h -2.35645 l 4.34082,-19.378906 h 2.54297 l 4.33985,19.378906 z m -3.25586,-15.812988 -1.79883,8.681641 h 3.59668 z"
   id="path54"
   style="fill:#000000" />
	<path
   class="st0"
   d="M 313.63495,90.26461 V 76.125938 l 2.20117,-0.40332 v 2.511719 c 0.49609,-1.612305 1.33301,-2.573242 2.48047,-2.573242 0.55859,0 1.08496,0.278808 1.51953,0.650879 l -0.46484,2.294433 c -0.37207,-0.34082 -0.80664,-0.682129 -1.27149,-0.682129 -0.80566,0 -1.64355,1.209473 -2.26367,3.410645 v 8.929687 z"
   id="path55"
   style="fill:#000000" />
	<path
   class="st0"
   d="m 327.86444,90.016563 c -0.58887,0.403321 -1.42578,0.651368 -2.0459,0.651368 -1.58105,0 -3.10058,-0.806641 -3.10058,-4.403321 V 78.203087 L 321.2912,78.048302 V 76.56002 l 1.42676,-0.558105 v -3.193359 h 2.20117 v 3.255371 h 2.85254 l -0.12403,1.984375 h -2.72851 v 8.433593 c 0,1.643067 0.55859,2.170411 1.27148,2.170411 0.46485,0 1.02344,-0.310059 1.39453,-0.651368 z"
   id="path56"
   style="fill:#000000" />
	<path
   class="st0"
   d="m 329.97186,87.598106 c 0.83692,0.682129 1.73633,1.116211 2.63477,1.116211 1.17871,0 1.8916,-0.868164 1.8916,-2.015136 0,-1.147461 -0.62012,-1.922852 -2.1084,-2.791016 -1.8291,-1.084961 -2.91406,-2.356445 -2.91406,-4.402344 0,-2.294922 1.73633,-3.844726 3.90625,-3.844726 1.14746,0 2.20117,0.464843 2.88379,0.960937 l -0.46582,1.984375 c -0.77442,-0.558105 -1.58106,-0.960937 -2.44922,-0.960937 -1.02344,0 -1.76758,0.68164 -1.76758,1.829101 0,1.084961 0.46582,1.79834 1.98438,2.728516 1.79882,1.116211 3.03906,2.387695 3.03906,4.464844 0,2.387695 -1.73633,4 -3.9375,4 -1.14746,0 -2.32617,-0.434571 -3.16309,-1.08545 z"
   id="path57"
   style="fill:#000000" />
</g><path
     class="st0"
     d="m 130.96074,90.334106 c -1.56543,0 -2.83472,-1.269043 -2.83472,-2.834472 V 46.198852 c 0,-1.565429 1.26929,-2.834472 2.83472,-2.834472 1.56543,0 2.83472,1.269043 2.83472,2.834472 v 41.300782 c 0,1.565429 -1.26929,2.834472 -2.83472,2.834472 z"
     id="path58"
     style="fill:#000000" /><path
     class="st0"
     d="m 209.33963,62.77356 c -0.78271,0 -1.41724,-0.634766 -1.41724,-1.417481 V 44.864868 c 0,-0.782715 0.63453,-1.41748 1.41724,-1.41748 0.78271,0 1.41724,0.634765 1.41724,1.41748 v 16.491211 c 0,0.782715 -0.63453,1.417481 -1.41724,1.417481 z"
     id="path59"
     style="fill:#000000" /><path
     class="st0"
     d="M 96.900024,0 H 5.0999756 C 2.2949829,0 0,2.2949829 0,5.0999756 V 96.899963 C 0,99.704956 2.2949829,102 5.0999756,102 H 96.900024 C 99.705078,102 102,99.704956 102,96.899963 V 5.0999756 C 102,2.2949829 99.705078,0 96.900024,0 Z M 75.70874,57.34668 c -0.09106,11.953613 -8.172973,26.368469 -28.258911,26.368469 -20.693481,0 -29.676086,-13.754578 -29.676086,-27.165466 v -35.40503 h 14.332946 v 34.677002 c 0,12.930542 8.812989,19.450684 17.517579,19.450684 11.176513,0 16.247558,-8.916931 15.815063,-21.249817 -15.453979,-7.805908 -24.852844,-2.63678 -24.852844,-2.63678 0,0 4.755798,-18.308777 24.852844,-11.711914 V 21.144653 H 75.726074 V 43.16217 c 12.796631,3.628846 16.892578,1.009522 19.453736,-1.948425 1.916992,7.450623 -4.805542,18.393433 -19.47107,16.132935 z"
     id="path60"
     style="fill:#000000" /></g>
</svg>
