<?xml version="1.0" encoding="UTF-8" standalone="no"?>
<!-- Created with Inkscape (http://www.inkscape.org/) -->

<svg
   width="59.462799mm"
   height="14.152136mm"
   viewBox="0 0 59.462799 14.152137"
   version="1.1"
   id="svg5"
   inkscape:version="1.3.1 (9b9bdc1480, 2023-11-25, custom)"
   sodipodi:docname="menu.svg"
   xml:space="preserve"
   xmlns:inkscape="http://www.inkscape.org/namespaces/inkscape"
   xmlns:sodipodi="http://sodipodi.sourceforge.net/DTD/sodipodi-0.dtd"
   xmlns="http://www.w3.org/2000/svg"
   xmlns:svg="http://www.w3.org/2000/svg"><sodipodi:namedview
     id="namedview7"
     pagecolor="#ffffff"
     bordercolor="#000000"
     borderopacity="0.25"
     inkscape:showpageshadow="2"
     inkscape:pageopacity="0.0"
     inkscape:pagecheckerboard="0"
     inkscape:deskcolor="#d1d1d1"
     inkscape:document-units="mm"
     showgrid="false"
     inkscape:zoom="0.45254834"
     inkscape:cx="29.831067"
     inkscape:cy="419.84465"
     inkscape:window-width="1366"
     inkscape:window-height="704"
     inkscape:window-x="0"
     inkscape:window-y="0"
     inkscape:window-maximized="1"
     inkscape:current-layer="layer1"
     showguides="false"><sodipodi:guide
       position="-1106.8346,125.46125"
       orientation="1,0"
       id="guide5780"
       inkscape:locked="false" /><sodipodi:guide
       position="-1969.0177,539.09455"
       orientation="1,0"
       id="guide790"
       inkscape:locked="false" /><sodipodi:guide
       position="-1880.1049,516.32039"
       orientation="0,-1"
       id="guide844"
       inkscape:locked="false" /><sodipodi:guide
       position="-1396.2831,379.26608"
       orientation="0,-1"
       id="guide5"
       inkscape:locked="false" /><sodipodi:guide
       position="-1369.4207,92.850473"
       orientation="1,0"
       id="guide1"
       inkscape:locked="false" /><sodipodi:guide
       position="-1110.1889,183.41266"
       orientation="0,-1"
       id="guide460"
       inkscape:locked="false" /><sodipodi:guide
       position="-1075.3195,190.99296"
       orientation="0,-1"
       id="guide461"
       inkscape:locked="false" /><inkscape:page
       x="0"
       y="0"
       width="59.462799"
       height="14.152137"
       id="page464"
       margin="0"
       bleed="0" /></sodipodi:namedview><defs
     id="defs2"><rect
       x="995.12891"
       y="2339.9858"
       width="456.39209"
       height="243.97595"
       id="rect15534" /><rect
       x="-1357.2008"
       y="1300.5203"
       width="66.749092"
       height="124.36924"
       id="rect1672" /><rect
       x="107.55761"
       y="213.35574"
       width="680.01904"
       height="344.14566"
       id="rect133" /><rect
       x="107.55761"
       y="213.35574"
       width="680.01904"
       height="344.14566"
       id="rect4041" /><rect
       x="107.55761"
       y="213.35574"
       width="680.01904"
       height="344.14566"
       id="rect4149" /><rect
       x="107.55761"
       y="213.35574"
       width="680.01904"
       height="344.14566"
       id="rect4707" /><rect
       x="107.55761"
       y="213.35574"
       width="680.01904"
       height="344.14566"
       id="rect4815" /><rect
       x="107.55761"
       y="213.35574"
       width="680.01904"
       height="344.14566"
       id="rect4821" /><rect
       x="107.55761"
       y="213.35574"
       width="680.01904"
       height="344.14566"
       id="rect5042" /><rect
       x="107.55761"
       y="213.35574"
       width="680.01904"
       height="344.14566"
       id="rect5267" /><rect
       x="107.55761"
       y="213.35574"
       width="680.01904"
       height="344.14566"
       id="rect6385" /><rect
       x="107.55761"
       y="213.35574"
       width="680.01904"
       height="344.14566"
       id="rect6387" /><rect
       x="107.55761"
       y="213.35574"
       width="680.01904"
       height="344.14566"
       id="rect6389" /><rect
       x="107.55761"
       y="213.35574"
       width="680.01904"
       height="344.14566"
       id="rect6391" /><rect
       x="107.55761"
       y="213.35574"
       width="680.01904"
       height="344.14566"
       id="rect6393" /><rect
       x="107.55761"
       y="213.35574"
       width="680.01904"
       height="344.14566"
       id="rect6395" /><rect
       x="107.55761"
       y="213.35574"
       width="680.01904"
       height="344.14566"
       id="rect6397" /><rect
       x="107.55761"
       y="213.35574"
       width="680.01904"
       height="344.14566"
       id="rect6399" /><rect
       x="107.55761"
       y="213.35574"
       width="680.01904"
       height="344.14566"
       id="rect6677" /><rect
       x="107.55761"
       y="213.35574"
       width="680.01904"
       height="344.14566"
       id="rect6679" /><rect
       x="107.55761"
       y="213.35574"
       width="680.01904"
       height="344.14566"
       id="rect6681" /><rect
       x="107.55761"
       y="213.35574"
       width="680.01904"
       height="344.14566"
       id="rect6683" /><rect
       x="107.55761"
       y="213.35574"
       width="680.01904"
       height="344.14566"
       id="rect6685" /><rect
       x="107.55761"
       y="213.35574"
       width="680.01904"
       height="344.14566"
       id="rect6687" /><rect
       x="107.55761"
       y="213.35574"
       width="680.01904"
       height="344.14566"
       id="rect6689" /><rect
       x="107.55761"
       y="213.35574"
       width="680.01904"
       height="344.14566"
       id="rect6691" /><rect
       x="107.55761"
       y="213.35574"
       width="680.01904"
       height="344.14566"
       id="rect7707" /><rect
       x="107.55761"
       y="213.35574"
       width="680.01904"
       height="344.14566"
       id="rect2562" /><rect
       x="107.55761"
       y="213.35574"
       width="680.01904"
       height="344.14566"
       id="rect3803" /><rect
       x="107.55761"
       y="213.35574"
       width="680.01904"
       height="344.14566"
       id="rect3805" /><rect
       x="107.55761"
       y="213.35574"
       width="680.01904"
       height="344.14566"
       id="rect3807" /><rect
       x="107.55761"
       y="213.35574"
       width="680.01904"
       height="344.14566"
       id="rect3809" /><rect
       x="107.55761"
       y="213.35574"
       width="680.01904"
       height="344.14566"
       id="rect3811" /><rect
       x="107.55761"
       y="213.35574"
       width="680.01904"
       height="344.14566"
       id="rect3813" /><rect
       x="107.55761"
       y="213.35574"
       width="680.01904"
       height="344.14566"
       id="rect3815" /><rect
       x="107.55761"
       y="213.35574"
       width="680.01904"
       height="344.14566"
       id="rect5401" /><rect
       x="107.55761"
       y="213.35574"
       width="680.01904"
       height="344.14566"
       id="rect5403" /><rect
       x="107.55761"
       y="213.35574"
       width="680.01904"
       height="344.14566"
       id="rect5405" /><rect
       x="107.55761"
       y="213.35574"
       width="680.01904"
       height="344.14566"
       id="rect5407" /><rect
       x="107.55761"
       y="213.35574"
       width="680.01904"
       height="344.14566"
       id="rect5409" /><rect
       x="107.55761"
       y="213.35574"
       width="680.01904"
       height="344.14566"
       id="rect5411" /><rect
       x="107.55761"
       y="213.35574"
       width="680.01904"
       height="344.14566"
       id="rect5413" /><rect
       x="107.55761"
       y="213.35574"
       width="680.01904"
       height="344.14566"
       id="rect5431" /><rect
       x="107.55761"
       y="213.35574"
       width="680.01904"
       height="344.14566"
       id="rect5433" /><rect
       x="107.55761"
       y="213.35574"
       width="680.01904"
       height="344.14566"
       id="rect668" /><rect
       x="107.55761"
       y="213.35574"
       width="680.01904"
       height="344.14566"
       id="rect670" /><rect
       x="107.55761"
       y="213.35574"
       width="680.01904"
       height="344.14566"
       id="rect672" /><rect
       x="107.55761"
       y="213.35574"
       width="392.64627"
       height="635.28125"
       id="rect674" /><rect
       x="107.55761"
       y="213.35574"
       width="680.01904"
       height="344.14566"
       id="rect676" /><rect
       x="107.55761"
       y="213.35574"
       width="680.01904"
       height="344.14566"
       id="rect678" /><rect
       x="107.55761"
       y="213.35574"
       width="680.01904"
       height="344.14566"
       id="rect1660" /><rect
       x="107.55761"
       y="213.35574"
       width="680.01904"
       height="344.14566"
       id="rect1662" /><rect
       x="107.55761"
       y="213.35574"
       width="392.64627"
       height="635.28125"
       id="rect1664" /><rect
       x="107.55761"
       y="213.35574"
       width="680.01904"
       height="344.14566"
       id="rect1666" /><rect
       x="107.55761"
       y="213.35574"
       width="680.01904"
       height="344.14566"
       id="rect1668" /><rect
       x="107.55761"
       y="213.35574"
       width="680.01904"
       height="344.14566"
       id="rect2515" /><rect
       x="107.55761"
       y="213.35574"
       width="680.01904"
       height="344.14566"
       id="rect4212" /><rect
       x="107.55761"
       y="213.35574"
       width="680.01904"
       height="344.14566"
       id="rect4214" /><rect
       x="107.55761"
       y="213.35574"
       width="680.01904"
       height="344.14566"
       id="rect4216" /><rect
       x="107.55761"
       y="213.35574"
       width="680.01904"
       height="344.14566"
       id="rect4218" /><rect
       x="107.55761"
       y="213.35574"
       width="680.01904"
       height="344.14566"
       id="rect4220" /><rect
       x="107.55761"
       y="213.35574"
       width="680.01904"
       height="344.14566"
       id="rect7047" /><rect
       x="107.55761"
       y="213.35574"
       width="680.01904"
       height="344.14566"
       id="rect7049" /><rect
       x="107.55761"
       y="213.35574"
       width="680.01904"
       height="344.14566"
       id="rect7051" /><rect
       x="107.55761"
       y="213.35574"
       width="680.01904"
       height="344.14566"
       id="rect7053" /><rect
       x="107.55761"
       y="213.35574"
       width="680.01904"
       height="344.14566"
       id="rect7055" /><rect
       x="107.55761"
       y="213.35574"
       width="680.01904"
       height="344.14566"
       id="rect11615" /><rect
       x="107.55761"
       y="213.35574"
       width="680.01904"
       height="344.14566"
       id="rect11617" /><rect
       x="107.55761"
       y="213.35574"
       width="680.01904"
       height="344.14566"
       id="rect11619" /><rect
       x="107.55761"
       y="213.35574"
       width="680.01904"
       height="344.14566"
       id="rect11621" /><rect
       x="107.55761"
       y="213.35574"
       width="680.01904"
       height="344.14566"
       id="rect11623" /><rect
       x="107.55761"
       y="213.35574"
       width="680.01904"
       height="344.14566"
       id="rect11659" /><rect
       x="107.55761"
       y="213.35574"
       width="680.01904"
       height="344.14566"
       id="rect11661" /><rect
       x="107.55761"
       y="213.35574"
       width="680.01904"
       height="344.14566"
       id="rect11663" /><rect
       x="107.55761"
       y="213.35574"
       width="680.01904"
       height="344.14566"
       id="rect11665" /><rect
       x="107.55761"
       y="213.35574"
       width="680.01904"
       height="344.14566"
       id="rect11667" /><rect
       x="107.55761"
       y="213.35574"
       width="680.01904"
       height="344.14566"
       id="rect12920" /><rect
       x="107.55761"
       y="213.35574"
       width="680.01904"
       height="344.14566"
       id="rect12922" /><rect
       x="107.55761"
       y="213.35574"
       width="680.01904"
       height="344.14566"
       id="rect12924" /><rect
       x="107.55761"
       y="213.35574"
       width="680.01904"
       height="344.14566"
       id="rect12926" /><rect
       x="107.55761"
       y="213.35574"
       width="680.01904"
       height="344.14566"
       id="rect12928" /><rect
       x="107.55761"
       y="213.35574"
       width="680.01904"
       height="344.14566"
       id="rect13066" /><rect
       x="107.55761"
       y="213.35574"
       width="680.01904"
       height="344.14566"
       id="rect13068" /><rect
       x="107.55761"
       y="213.35574"
       width="680.01904"
       height="344.14566"
       id="rect13070" /><rect
       x="107.55761"
       y="213.35574"
       width="680.01904"
       height="344.14566"
       id="rect13072" /><rect
       x="107.55761"
       y="213.35574"
       width="680.01904"
       height="344.14566"
       id="rect13074" /><rect
       x="107.55761"
       y="213.35574"
       width="680.01904"
       height="344.14566"
       id="rect14179" /><rect
       x="107.55761"
       y="213.35574"
       width="680.01904"
       height="344.14566"
       id="rect14181" /><rect
       x="107.55761"
       y="213.35574"
       width="680.01904"
       height="344.14566"
       id="rect14183" /><rect
       x="107.55761"
       y="213.35574"
       width="680.01904"
       height="344.14566"
       id="rect14185" /><rect
       x="107.55761"
       y="213.35574"
       width="680.01904"
       height="344.14566"
       id="rect14187" /><rect
       x="107.55761"
       y="213.35574"
       width="680.01904"
       height="344.14566"
       id="rect14223" /><rect
       x="107.55761"
       y="213.35574"
       width="680.01904"
       height="344.14566"
       id="rect14225" /><rect
       x="107.55761"
       y="213.35574"
       width="680.01904"
       height="344.14566"
       id="rect14227" /><rect
       x="107.55761"
       y="213.35574"
       width="680.01904"
       height="344.14566"
       id="rect14229" /><rect
       x="107.55761"
       y="213.35574"
       width="680.01904"
       height="344.14566"
       id="rect14231" /><rect
       x="107.55761"
       y="213.35574"
       width="680.01904"
       height="344.14566"
       id="rect14237" /><rect
       x="107.55761"
       y="213.35574"
       width="680.01904"
       height="344.14566"
       id="rect15510" /><rect
       x="107.55761"
       y="213.35574"
       width="680.01904"
       height="344.14566"
       id="rect15512" /><rect
       x="107.55761"
       y="213.35574"
       width="680.01904"
       height="344.14566"
       id="rect15514" /><rect
       x="107.55761"
       y="213.35574"
       width="680.01904"
       height="344.14566"
       id="rect15516" /><rect
       x="107.55761"
       y="213.35574"
       width="680.01904"
       height="344.14566"
       id="rect15518" /><rect
       x="107.55761"
       y="213.35574"
       width="680.01904"
       height="344.14566"
       id="rect15528" /><rect
       x="107.55761"
       y="213.35574"
       width="680.01904"
       height="344.14566"
       id="rect15530" /><rect
       x="107.55761"
       y="213.35574"
       width="680.01904"
       height="344.14566"
       id="rect16764" /><rect
       x="107.55761"
       y="213.35574"
       width="680.01904"
       height="344.14566"
       id="rect16766" /><rect
       x="107.55761"
       y="213.35574"
       width="680.01904"
       height="344.14566"
       id="rect16768" /><rect
       x="107.55761"
       y="213.35574"
       width="680.01904"
       height="344.14566"
       id="rect16770" /><rect
       x="107.55761"
       y="213.35574"
       width="680.01904"
       height="344.14566"
       id="rect16772" /><rect
       x="107.55761"
       y="213.35574"
       width="680.01904"
       height="344.14566"
       id="rect31482" /><rect
       x="107.55761"
       y="213.35574"
       width="680.01904"
       height="344.14566"
       id="rect31484" /><rect
       x="107.55761"
       y="213.35574"
       width="680.01904"
       height="344.14566"
       id="rect31486" /><rect
       x="107.55761"
       y="213.35574"
       width="680.01904"
       height="344.14566"
       id="rect31488" /><rect
       x="107.55761"
       y="213.35574"
       width="680.01904"
       height="344.14566"
       id="rect31490" /><rect
       x="107.55761"
       y="213.35574"
       width="680.01904"
       height="344.14566"
       id="rect31492" /><rect
       x="107.55761"
       y="213.35574"
       width="680.01904"
       height="344.14566"
       id="rect31494" /><rect
       x="107.55761"
       y="213.35574"
       width="680.01904"
       height="344.14566"
       id="rect31496" /><rect
       x="107.55761"
       y="213.35574"
       width="680.01904"
       height="344.14566"
       id="rect31498" /><rect
       x="107.55761"
       y="213.35574"
       width="680.01904"
       height="344.14566"
       id="rect31500" /><rect
       x="107.55761"
       y="213.35574"
       width="680.01904"
       height="344.14566"
       id="rect31502" /><rect
       x="107.55761"
       y="213.35574"
       width="680.01904"
       height="344.14566"
       id="rect31504" /><rect
       x="107.55761"
       y="213.35574"
       width="680.01904"
       height="344.14566"
       id="rect31506" /><rect
       x="107.55761"
       y="213.35574"
       width="680.01904"
       height="344.14566"
       id="rect31508" /><rect
       x="107.55761"
       y="213.35574"
       width="680.01904"
       height="344.14566"
       id="rect31510" /><rect
       x="107.55761"
       y="213.35574"
       width="680.01904"
       height="344.14566"
       id="rect31512" /><rect
       x="107.55761"
       y="213.35574"
       width="680.01904"
       height="344.14566"
       id="rect31514" /><rect
       x="107.55761"
       y="213.35574"
       width="680.01904"
       height="344.14566"
       id="rect31516" /><rect
       x="107.55761"
       y="213.35574"
       width="680.01904"
       height="344.14566"
       id="rect31518" /><rect
       x="107.55761"
       y="213.35574"
       width="680.01904"
       height="344.14566"
       id="rect31520" /><rect
       x="107.55761"
       y="213.35574"
       width="680.01904"
       height="344.14566"
       id="rect31522" /><rect
       x="107.55761"
       y="213.35574"
       width="680.01904"
       height="344.14566"
       id="rect31524" /><rect
       x="107.55761"
       y="213.35574"
       width="680.01904"
       height="344.14566"
       id="rect31526" /><rect
       x="107.55761"
       y="213.35574"
       width="680.01904"
       height="344.14566"
       id="rect31528" /><rect
       x="107.55761"
       y="213.35574"
       width="680.01904"
       height="344.14566"
       id="rect31530" /><rect
       x="107.55761"
       y="213.35574"
       width="680.01904"
       height="344.14566"
       id="rect31532" /><rect
       x="107.55761"
       y="213.35574"
       width="680.01904"
       height="344.14566"
       id="rect31534" /><rect
       x="107.55761"
       y="213.35574"
       width="680.01904"
       height="344.14566"
       id="rect31536" /><rect
       x="107.55761"
       y="213.35574"
       width="680.01904"
       height="344.14566"
       id="rect31538" /><rect
       x="107.55761"
       y="213.35574"
       width="680.01904"
       height="344.14566"
       id="rect31540" /><rect
       x="107.55761"
       y="213.35574"
       width="680.01904"
       height="344.14566"
       id="rect31542" /><rect
       x="107.55761"
       y="213.35574"
       width="680.01904"
       height="344.14566"
       id="rect31544" /><rect
       x="107.55761"
       y="213.35574"
       width="680.01904"
       height="344.14566"
       id="rect31546" /><rect
       x="107.55761"
       y="213.35574"
       width="680.01904"
       height="344.14566"
       id="rect31548" /><rect
       x="107.55761"
       y="213.35574"
       width="680.01904"
       height="344.14566"
       id="rect31550" /><rect
       x="107.55761"
       y="213.35574"
       width="680.01904"
       height="344.14566"
       id="rect31552" /><rect
       x="107.55761"
       y="213.35574"
       width="680.01904"
       height="344.14566"
       id="rect31554" /><rect
       x="107.55761"
       y="213.35574"
       width="680.01904"
       height="344.14566"
       id="rect31556" /><rect
       x="107.55761"
       y="213.35574"
       width="680.01904"
       height="344.14566"
       id="rect31558" /><rect
       x="107.55761"
       y="213.35574"
       width="680.01904"
       height="344.14566"
       id="rect31560" /><rect
       x="107.55761"
       y="213.35574"
       width="680.01904"
       height="344.14566"
       id="rect31562" /><rect
       x="107.55761"
       y="213.35574"
       width="680.01904"
       height="344.14566"
       id="rect31564" /><rect
       x="107.55761"
       y="213.35574"
       width="680.01904"
       height="344.14566"
       id="rect32" /><rect
       x="107.55761"
       y="213.35574"
       width="680.01904"
       height="344.14566"
       id="rect33" /><rect
       x="107.55761"
       y="213.35574"
       width="392.64627"
       height="635.28125"
       id="rect34" /><rect
       x="107.55761"
       y="213.35574"
       width="680.01904"
       height="344.14566"
       id="rect35" /><rect
       x="107.55761"
       y="213.35574"
       width="680.01904"
       height="344.14566"
       id="rect36" /><rect
       x="107.55761"
       y="213.35574"
       width="272.82059"
       height="162.96365"
       id="rect3" /><rect
       x="107.55761"
       y="213.35574"
       width="568.97534"
       height="104.87715"
       id="rect5" /><rect
       x="107.55761"
       y="213.35574"
       width="680.01904"
       height="344.14566"
       id="rect460" /><rect
       x="107.55761"
       y="213.35574"
       width="392.64627"
       height="635.28125"
       id="rect464" /><rect
       x="107.55761"
       y="213.35574"
       width="680.01904"
       height="344.14566"
       id="rect481" /><rect
       x="107.55761"
       y="213.35574"
       width="392.64627"
       height="635.28125"
       id="rect482" /><rect
       x="107.55761"
       y="213.35574"
       width="680.01904"
       height="344.14566"
       id="rect483" /><rect
       x="107.55761"
       y="213.35574"
       width="680.01904"
       height="344.14566"
       id="rect484" /><rect
       x="107.55761"
       y="213.35574"
       width="392.64627"
       height="635.28125"
       id="rect485" /><rect
       x="107.55761"
       y="213.35574"
       width="392.64627"
       height="635.28125"
       id="rect486" /><rect
       x="107.55761"
       y="213.35574"
       width="515.96875"
       height="173.84473"
       id="rect501" /><rect
       x="107.55761"
       y="213.35574"
       width="392.64627"
       height="635.28125"
       id="rect502" /><rect
       x="107.55761"
       y="213.35574"
       width="680.01904"
       height="344.14566"
       id="rect503" /><rect
       x="107.55761"
       y="213.35574"
       width="680.01904"
       height="344.14566"
       id="rect504" /><rect
       x="107.55761"
       y="213.35574"
       width="392.64627"
       height="635.28125"
       id="rect505" /><rect
       x="107.55761"
       y="213.35574"
       width="392.64627"
       height="635.28125"
       id="rect506" /><rect
       x="107.55761"
       y="213.35574"
       width="272.4035"
       height="164.23099"
       id="rect507" /><rect
       x="107.55761"
       y="213.35574"
       width="272.4035"
       height="164.23099"
       id="rect508" /><rect
       x="107.55761"
       y="213.35574"
       width="272.4035"
       height="164.23099"
       id="rect509" /><rect
       x="107.55761"
       y="213.35574"
       width="272.4035"
       height="164.23099"
       id="rect513" /><rect
       x="107.55761"
       y="213.35574"
       width="272.4035"
       height="164.23099"
       id="rect514" /><rect
       x="107.55761"
       y="213.35574"
       width="272.4035"
       height="164.23099"
       id="rect515" /><rect
       x="107.55761"
       y="213.35574"
       width="515.96875"
       height="173.84473"
       id="rect519" /><rect
       x="107.55761"
       y="213.35574"
       width="517.97559"
       height="419.36246"
       id="rect520" /><rect
       x="107.55761"
       y="213.35574"
       width="515.96875"
       height="173.84473"
       id="rect533" /><rect
       x="107.55761"
       y="213.35574"
       width="392.64627"
       height="635.28125"
       id="rect534" /><rect
       x="107.55761"
       y="213.35574"
       width="272.4035"
       height="164.23099"
       id="rect535" /><rect
       x="107.55761"
       y="213.35574"
       width="272.4035"
       height="164.23099"
       id="rect536" /><rect
       x="107.55761"
       y="213.35574"
       width="272.4035"
       height="164.23099"
       id="rect537" /><rect
       x="107.55761"
       y="213.35574"
       width="272.4035"
       height="164.23099"
       id="rect538" /><rect
       x="107.55761"
       y="213.35574"
       width="272.4035"
       height="164.23099"
       id="rect539" /><rect
       x="107.55761"
       y="213.35574"
       width="272.4035"
       height="164.23099"
       id="rect540" /><rect
       x="107.55761"
       y="213.35574"
       width="517.97559"
       height="419.36246"
       id="rect541" /><rect
       x="107.55761"
       y="213.35574"
       width="517.97559"
       height="419.36246"
       id="rect542" /><rect
       x="107.55761"
       y="213.35574"
       width="392.64627"
       height="635.28125"
       id="rect556" /><rect
       x="107.55761"
       y="213.35574"
       width="272.4035"
       height="164.23099"
       id="rect557" /><rect
       x="107.55761"
       y="213.35574"
       width="272.4035"
       height="164.23099"
       id="rect558" /><rect
       x="107.55761"
       y="213.35574"
       width="272.4035"
       height="164.23099"
       id="rect559" /><rect
       x="107.55761"
       y="213.35574"
       width="272.4035"
       height="164.23099"
       id="rect560" /><rect
       x="107.55761"
       y="213.35574"
       width="272.4035"
       height="164.23099"
       id="rect561" /><rect
       x="107.55761"
       y="213.35574"
       width="272.4035"
       height="164.23099"
       id="rect562" /><rect
       x="107.55761"
       y="213.35574"
       width="517.97559"
       height="419.36246"
       id="rect563" /><rect
       x="107.55761"
       y="213.35574"
       width="482.22867"
       height="161.28738"
       id="rect574" /><rect
       x="107.55761"
       y="213.35574"
       width="272.4035"
       height="164.23099"
       id="rect575" /><rect
       x="107.55761"
       y="213.35574"
       width="272.4035"
       height="164.23099"
       id="rect576" /><rect
       x="107.55761"
       y="213.35574"
       width="272.4035"
       height="164.23099"
       id="rect577" /><rect
       x="107.55761"
       y="213.35574"
       width="272.4035"
       height="164.23099"
       id="rect579" /><rect
       x="107.55761"
       y="213.35574"
       width="272.4035"
       height="164.23099"
       id="rect580" /><rect
       x="107.55761"
       y="213.35574"
       width="272.4035"
       height="164.23099"
       id="rect581" /><rect
       x="107.55761"
       y="213.35574"
       width="517.97559"
       height="419.36246"
       id="rect582" /><rect
       x="107.55761"
       y="213.35574"
       width="818.37531"
       height="125.52018"
       id="rect594" /><rect
       x="107.55761"
       y="213.35574"
       width="272.4035"
       height="164.23099"
       id="rect595" /><rect
       x="107.55761"
       y="213.35574"
       width="272.4035"
       height="164.23099"
       id="rect596" /><rect
       x="107.55761"
       y="213.35574"
       width="272.4035"
       height="164.23099"
       id="rect597" /><rect
       x="107.55761"
       y="213.35574"
       width="272.4035"
       height="164.23099"
       id="rect598" /><rect
       x="107.55761"
       y="213.35574"
       width="272.4035"
       height="164.23099"
       id="rect599" /><rect
       x="107.55761"
       y="213.35574"
       width="272.4035"
       height="164.23099"
       id="rect600" /><rect
       x="107.55761"
       y="213.35574"
       width="517.97559"
       height="419.36246"
       id="rect601" /><rect
       x="107.55761"
       y="213.35574"
       width="904.66168"
       height="304.64932"
       id="rect602" /><rect
       x="107.55761"
       y="213.35574"
       width="764.4198"
       height="122.32967"
       id="rect604" /><rect
       x="107.55761"
       y="213.35574"
       width="482.22867"
       height="161.28738"
       id="rect27" /><rect
       x="107.55761"
       y="213.35574"
       width="272.4035"
       height="164.23099"
       id="rect28" /><rect
       x="107.55761"
       y="213.35574"
       width="272.4035"
       height="164.23099"
       id="rect29" /><rect
       x="107.55761"
       y="213.35574"
       width="272.4035"
       height="164.23099"
       id="rect30" /><rect
       x="107.55761"
       y="213.35574"
       width="272.4035"
       height="164.23099"
       id="rect31" /><rect
       x="107.55761"
       y="213.35574"
       width="272.4035"
       height="164.23099"
       id="rect37" /><rect
       x="107.55761"
       y="213.35574"
       width="272.4035"
       height="164.23099"
       id="rect38" /><rect
       x="107.55761"
       y="213.35574"
       width="517.97559"
       height="419.36246"
       id="rect39" /></defs><g
     inkscape:label="Layer 1"
     inkscape:groupmode="layer"
     id="layer1"
     transform="translate(-1500.1195,73.228992)"><path
       d="m 1500.1195,-59.42561 h 1.652 v -10.609516 l 4.2218,10.609516 h 1.5418 l 4.1484,-10.609516 v 10.609516 h 1.652 v -13.803382 h -2.0925 l -4.4788,11.45387 -4.5522,-11.45387 h -2.0925 z m 16.1235,-12.169739 h 16.2685 v -1.633643 h -16.2685 m 0,13.803382 h 16.4337 v -1.652002 h -16.4337 m 0,-4.625599 h 15.6628 v -1.633646 h -15.6628 m 18.9741,7.911247 h 1.652 v -10.95827 l 7.3055,10.95827 h 1.7438 v -13.803382 h -1.652 v 10.903203 l -7.2871,-10.903203 h -1.7622 z m 18.9503,0.348754 c 3.3591,0 5.4149,-1.964043 5.4149,-5.543379 v -8.608757 h -1.6704 v 8.608757 c 0,2.569779 -1.3399,3.891379 -3.7445,3.891379 -2.3495,0 -3.6528,-1.339956 -3.6528,-3.909735 v -8.590401 h -1.6703 v 8.590401 c 0,3.634402 1.9824,5.561735 5.3231,5.561735 z"
       id="path486"
       style="font-size:66.6667px;font-family:'AUTHENTIC Sans';-inkscape-font-specification:'AUTHENTIC Sans';letter-spacing:2.16px;white-space:pre;fill:#00c589;stroke-width:0.275333"
       aria-label="MENU"
       sodipodi:nodetypes="cccccccccccccccccccccccccccccccccccccssccsssccss" /></g></svg>
