<?xml version="1.0" encoding="UTF-8" standalone="no"?>
<!-- Created with Inkscape (http://www.inkscape.org/) -->

<svg
   width="188.45708mm"
   height="91.670197mm"
   viewBox="0 0 188.45708 91.670203"
   version="1.1"
   id="svg5"
   inkscape:version="1.3.1 (9b9bdc1480, 2023-11-25, custom)"
   sodipodi:docname="slarg-2024.svg"
   xml:space="preserve"
   xmlns:inkscape="http://www.inkscape.org/namespaces/inkscape"
   xmlns:sodipodi="http://sodipodi.sourceforge.net/DTD/sodipodi-0.dtd"
   xmlns="http://www.w3.org/2000/svg"
   xmlns:svg="http://www.w3.org/2000/svg"><sodipodi:namedview
     id="namedview7"
     pagecolor="#ffffff"
     bordercolor="#000000"
     borderopacity="0"
     inkscape:showpageshadow="false"
     inkscape:pageopacity="0.0"
     inkscape:pagecheckerboard="false"
     inkscape:deskcolor="#d1d1d1"
     inkscape:document-units="mm"
     showgrid="false"
     inkscape:zoom="0.61702252"
     inkscape:cx="355.74066"
     inkscape:cy="165.31001"
     inkscape:window-width="1366"
     inkscape:window-height="704"
     inkscape:window-x="0"
     inkscape:window-y="0"
     inkscape:window-maximized="1"
     inkscape:current-layer="layer1"
     showguides="false"
     showborder="false"
     borderlayer="false"><sodipodi:guide
       position="299.97911,97.310979"
       orientation="1,0"
       id="guide5780"
       inkscape:locked="false" /><sodipodi:guide
       position="66.310015,203.6944"
       orientation="1,0"
       id="guide790"
       inkscape:locked="false" /><sodipodi:guide
       position="155.22281,180.92024"
       orientation="0,-1"
       id="guide844"
       inkscape:locked="false" /><sodipodi:guide
       position="857.78311,51.030147"
       orientation="0,-1"
       id="guide5"
       inkscape:locked="false" /><sodipodi:guide
       position="647.29192,83.814968"
       orientation="1,0"
       id="guide1"
       inkscape:locked="false" /><inkscape:page
       x="0"
       y="0"
       width="188.45708"
       height="91.670204"
       id="page712"
       margin="0 0 0"
       bleed="0" /><sodipodi:guide
       position="1205.9656,100.28464"
       orientation="1,0"
       id="guide999"
       inkscape:locked="false" /><sodipodi:guide
       position="1284.8365,-17.862121"
       orientation="0,-1"
       id="guide1003"
       inkscape:locked="false" /><sodipodi:guide
       position="1299.5416,98.911448"
       orientation="1,0"
       id="guide1004"
       inkscape:locked="false" /><sodipodi:guide
       position="1331.7163,-4.8048787"
       orientation="0,-1"
       id="guide1005"
       inkscape:locked="false" /><sodipodi:guide
       position="1526.55,125.96774"
       orientation="0,-1"
       id="guide1043"
       inkscape:locked="false" /><sodipodi:guide
       position="1522.1065,71.308302"
       orientation="0,-1"
       id="guide1044"
       inkscape:locked="false" /><sodipodi:guide
       position="1531.2597,41.345128"
       orientation="1,0"
       id="guide1045"
       inkscape:locked="false" /><sodipodi:guide
       position="1427.7079,162.19017"
       orientation="1,0"
       id="guide1046"
       inkscape:locked="false" /><sodipodi:guide
       position="2218.7767,-145.79431"
       orientation="1,0"
       id="guide1143"
       inkscape:locked="false" /></sodipodi:namedview><defs
     id="defs2"><rect
       x="2537.6677"
       y="753.31927"
       width="6.5178652"
       height="78.333015"
       id="rect1002" /><rect
       x="995.12891"
       y="2339.9858"
       width="456.39209"
       height="243.97595"
       id="rect15534" /><rect
       x="-1357.2008"
       y="1300.5203"
       width="66.749092"
       height="124.36924"
       id="rect1672" /><rect
       x="107.55761"
       y="213.35574"
       width="680.01904"
       height="344.14566"
       id="rect133" /><rect
       x="107.55761"
       y="213.35574"
       width="680.01904"
       height="344.14566"
       id="rect4041" /><rect
       x="107.55761"
       y="213.35574"
       width="680.01904"
       height="344.14566"
       id="rect4149" /><rect
       x="107.55761"
       y="213.35574"
       width="680.01904"
       height="344.14566"
       id="rect4707" /><rect
       x="107.55761"
       y="213.35574"
       width="680.01904"
       height="344.14566"
       id="rect4815" /><rect
       x="107.55761"
       y="213.35574"
       width="680.01904"
       height="344.14566"
       id="rect4821" /><rect
       x="107.55761"
       y="213.35574"
       width="680.01904"
       height="344.14566"
       id="rect5042" /><rect
       x="107.55761"
       y="213.35574"
       width="680.01904"
       height="344.14566"
       id="rect5267" /><rect
       x="107.55761"
       y="213.35574"
       width="680.01904"
       height="344.14566"
       id="rect6385" /><rect
       x="107.55761"
       y="213.35574"
       width="680.01904"
       height="344.14566"
       id="rect6387" /><rect
       x="107.55761"
       y="213.35574"
       width="680.01904"
       height="344.14566"
       id="rect6389" /><rect
       x="107.55761"
       y="213.35574"
       width="680.01904"
       height="344.14566"
       id="rect6391" /><rect
       x="107.55761"
       y="213.35574"
       width="680.01904"
       height="344.14566"
       id="rect6393" /><rect
       x="107.55761"
       y="213.35574"
       width="680.01904"
       height="344.14566"
       id="rect6395" /><rect
       x="107.55761"
       y="213.35574"
       width="680.01904"
       height="344.14566"
       id="rect6397" /><rect
       x="107.55761"
       y="213.35574"
       width="680.01904"
       height="344.14566"
       id="rect6399" /><rect
       x="107.55761"
       y="213.35574"
       width="680.01904"
       height="344.14566"
       id="rect6677" /><rect
       x="107.55761"
       y="213.35574"
       width="680.01904"
       height="344.14566"
       id="rect6679" /><rect
       x="107.55761"
       y="213.35574"
       width="680.01904"
       height="344.14566"
       id="rect6681" /><rect
       x="107.55761"
       y="213.35574"
       width="680.01904"
       height="344.14566"
       id="rect6683" /><rect
       x="107.55761"
       y="213.35574"
       width="680.01904"
       height="344.14566"
       id="rect6685" /><rect
       x="107.55761"
       y="213.35574"
       width="680.01904"
       height="344.14566"
       id="rect6687" /><rect
       x="107.55761"
       y="213.35574"
       width="680.01904"
       height="344.14566"
       id="rect6689" /><rect
       x="107.55761"
       y="213.35574"
       width="680.01904"
       height="344.14566"
       id="rect6691" /><rect
       x="107.55761"
       y="213.35574"
       width="680.01904"
       height="344.14566"
       id="rect7707" /><rect
       x="107.55761"
       y="213.35574"
       width="680.01904"
       height="344.14566"
       id="rect2562" /><rect
       x="107.55761"
       y="213.35574"
       width="680.01904"
       height="344.14566"
       id="rect3803" /><rect
       x="107.55761"
       y="213.35574"
       width="680.01904"
       height="344.14566"
       id="rect3805" /><rect
       x="107.55761"
       y="213.35574"
       width="680.01904"
       height="344.14566"
       id="rect3807" /><rect
       x="107.55761"
       y="213.35574"
       width="680.01904"
       height="344.14566"
       id="rect3809" /><rect
       x="107.55761"
       y="213.35574"
       width="680.01904"
       height="344.14566"
       id="rect3811" /><rect
       x="107.55761"
       y="213.35574"
       width="680.01904"
       height="344.14566"
       id="rect3813" /><rect
       x="107.55761"
       y="213.35574"
       width="680.01904"
       height="344.14566"
       id="rect3815" /><rect
       x="107.55761"
       y="213.35574"
       width="680.01904"
       height="344.14566"
       id="rect5401" /><rect
       x="107.55761"
       y="213.35574"
       width="680.01904"
       height="344.14566"
       id="rect5403" /><rect
       x="107.55761"
       y="213.35574"
       width="680.01904"
       height="344.14566"
       id="rect5405" /><rect
       x="107.55761"
       y="213.35574"
       width="680.01904"
       height="344.14566"
       id="rect5407" /><rect
       x="107.55761"
       y="213.35574"
       width="680.01904"
       height="344.14566"
       id="rect5409" /><rect
       x="107.55761"
       y="213.35574"
       width="680.01904"
       height="344.14566"
       id="rect5411" /><rect
       x="107.55761"
       y="213.35574"
       width="680.01904"
       height="344.14566"
       id="rect5413" /><rect
       x="107.55761"
       y="213.35574"
       width="680.01904"
       height="344.14566"
       id="rect5431" /><rect
       x="107.55761"
       y="213.35574"
       width="680.01904"
       height="344.14566"
       id="rect5433" /><rect
       x="107.55761"
       y="213.35574"
       width="680.01904"
       height="344.14566"
       id="rect668" /><rect
       x="107.55761"
       y="213.35574"
       width="680.01904"
       height="344.14566"
       id="rect670" /><rect
       x="107.55761"
       y="213.35574"
       width="680.01904"
       height="344.14566"
       id="rect672" /><rect
       x="107.55761"
       y="213.35574"
       width="392.64627"
       height="635.28125"
       id="rect674" /><rect
       x="107.55761"
       y="213.35574"
       width="680.01904"
       height="344.14566"
       id="rect676" /><rect
       x="107.55761"
       y="213.35574"
       width="680.01904"
       height="344.14566"
       id="rect678" /><rect
       x="107.55761"
       y="213.35574"
       width="680.01904"
       height="344.14566"
       id="rect1660" /><rect
       x="107.55761"
       y="213.35574"
       width="680.01904"
       height="344.14566"
       id="rect1662" /><rect
       x="107.55761"
       y="213.35574"
       width="392.64627"
       height="635.28125"
       id="rect1664" /><rect
       x="107.55761"
       y="213.35574"
       width="680.01904"
       height="344.14566"
       id="rect1666" /><rect
       x="107.55761"
       y="213.35574"
       width="680.01904"
       height="344.14566"
       id="rect1668" /><rect
       x="107.55761"
       y="213.35574"
       width="680.01904"
       height="344.14566"
       id="rect2515" /><rect
       x="107.55761"
       y="213.35574"
       width="680.01904"
       height="344.14566"
       id="rect4212" /><rect
       x="107.55761"
       y="213.35574"
       width="680.01904"
       height="344.14566"
       id="rect4214" /><rect
       x="107.55761"
       y="213.35574"
       width="680.01904"
       height="344.14566"
       id="rect4216" /><rect
       x="107.55761"
       y="213.35574"
       width="680.01904"
       height="344.14566"
       id="rect4218" /><rect
       x="107.55761"
       y="213.35574"
       width="680.01904"
       height="344.14566"
       id="rect4220" /><rect
       x="107.55761"
       y="213.35574"
       width="680.01904"
       height="344.14566"
       id="rect7047" /><rect
       x="107.55761"
       y="213.35574"
       width="680.01904"
       height="344.14566"
       id="rect7049" /><rect
       x="107.55761"
       y="213.35574"
       width="680.01904"
       height="344.14566"
       id="rect7051" /><rect
       x="107.55761"
       y="213.35574"
       width="680.01904"
       height="344.14566"
       id="rect7053" /><rect
       x="107.55761"
       y="213.35574"
       width="680.01904"
       height="344.14566"
       id="rect7055" /><rect
       x="107.55761"
       y="213.35574"
       width="680.01904"
       height="344.14566"
       id="rect11615" /><rect
       x="107.55761"
       y="213.35574"
       width="680.01904"
       height="344.14566"
       id="rect11617" /><rect
       x="107.55761"
       y="213.35574"
       width="680.01904"
       height="344.14566"
       id="rect11619" /><rect
       x="107.55761"
       y="213.35574"
       width="680.01904"
       height="344.14566"
       id="rect11621" /><rect
       x="107.55761"
       y="213.35574"
       width="680.01904"
       height="344.14566"
       id="rect11623" /><rect
       x="107.55761"
       y="213.35574"
       width="680.01904"
       height="344.14566"
       id="rect11659" /><rect
       x="107.55761"
       y="213.35574"
       width="680.01904"
       height="344.14566"
       id="rect11661" /><rect
       x="107.55761"
       y="213.35574"
       width="680.01904"
       height="344.14566"
       id="rect11663" /><rect
       x="107.55761"
       y="213.35574"
       width="680.01904"
       height="344.14566"
       id="rect11665" /><rect
       x="107.55761"
       y="213.35574"
       width="680.01904"
       height="344.14566"
       id="rect11667" /><rect
       x="107.55761"
       y="213.35574"
       width="680.01904"
       height="344.14566"
       id="rect12920" /><rect
       x="107.55761"
       y="213.35574"
       width="680.01904"
       height="344.14566"
       id="rect12922" /><rect
       x="107.55761"
       y="213.35574"
       width="680.01904"
       height="344.14566"
       id="rect12924" /><rect
       x="107.55761"
       y="213.35574"
       width="680.01904"
       height="344.14566"
       id="rect12926" /><rect
       x="107.55761"
       y="213.35574"
       width="680.01904"
       height="344.14566"
       id="rect12928" /><rect
       x="107.55761"
       y="213.35574"
       width="680.01904"
       height="344.14566"
       id="rect13066" /><rect
       x="107.55761"
       y="213.35574"
       width="680.01904"
       height="344.14566"
       id="rect13068" /><rect
       x="107.55761"
       y="213.35574"
       width="680.01904"
       height="344.14566"
       id="rect13070" /><rect
       x="107.55761"
       y="213.35574"
       width="680.01904"
       height="344.14566"
       id="rect13072" /><rect
       x="107.55761"
       y="213.35574"
       width="680.01904"
       height="344.14566"
       id="rect13074" /><rect
       x="107.55761"
       y="213.35574"
       width="680.01904"
       height="344.14566"
       id="rect14179" /><rect
       x="107.55761"
       y="213.35574"
       width="680.01904"
       height="344.14566"
       id="rect14181" /><rect
       x="107.55761"
       y="213.35574"
       width="680.01904"
       height="344.14566"
       id="rect14183" /><rect
       x="107.55761"
       y="213.35574"
       width="680.01904"
       height="344.14566"
       id="rect14185" /><rect
       x="107.55761"
       y="213.35574"
       width="680.01904"
       height="344.14566"
       id="rect14187" /><rect
       x="107.55761"
       y="213.35574"
       width="680.01904"
       height="344.14566"
       id="rect14223" /><rect
       x="107.55761"
       y="213.35574"
       width="680.01904"
       height="344.14566"
       id="rect14225" /><rect
       x="107.55761"
       y="213.35574"
       width="680.01904"
       height="344.14566"
       id="rect14227" /><rect
       x="107.55761"
       y="213.35574"
       width="680.01904"
       height="344.14566"
       id="rect14229" /><rect
       x="107.55761"
       y="213.35574"
       width="680.01904"
       height="344.14566"
       id="rect14231" /><rect
       x="107.55761"
       y="213.35574"
       width="680.01904"
       height="344.14566"
       id="rect14237" /><rect
       x="107.55761"
       y="213.35574"
       width="680.01904"
       height="344.14566"
       id="rect15510" /><rect
       x="107.55761"
       y="213.35574"
       width="680.01904"
       height="344.14566"
       id="rect15512" /><rect
       x="107.55761"
       y="213.35574"
       width="680.01904"
       height="344.14566"
       id="rect15514" /><rect
       x="107.55761"
       y="213.35574"
       width="680.01904"
       height="344.14566"
       id="rect15516" /><rect
       x="107.55761"
       y="213.35574"
       width="680.01904"
       height="344.14566"
       id="rect15518" /><rect
       x="107.55761"
       y="213.35574"
       width="680.01904"
       height="344.14566"
       id="rect15528" /><rect
       x="107.55761"
       y="213.35574"
       width="680.01904"
       height="344.14566"
       id="rect15530" /><rect
       x="107.55761"
       y="213.35574"
       width="680.01904"
       height="344.14566"
       id="rect16764" /><rect
       x="107.55761"
       y="213.35574"
       width="680.01904"
       height="344.14566"
       id="rect16766" /><rect
       x="107.55761"
       y="213.35574"
       width="680.01904"
       height="344.14566"
       id="rect16768" /><rect
       x="107.55761"
       y="213.35574"
       width="680.01904"
       height="344.14566"
       id="rect16770" /><rect
       x="107.55761"
       y="213.35574"
       width="680.01904"
       height="344.14566"
       id="rect16772" /><rect
       x="107.55761"
       y="213.35574"
       width="680.01904"
       height="344.14566"
       id="rect31482" /><rect
       x="107.55761"
       y="213.35574"
       width="680.01904"
       height="344.14566"
       id="rect31484" /><rect
       x="107.55761"
       y="213.35574"
       width="680.01904"
       height="344.14566"
       id="rect31486" /><rect
       x="107.55761"
       y="213.35574"
       width="680.01904"
       height="344.14566"
       id="rect31488" /><rect
       x="107.55761"
       y="213.35574"
       width="680.01904"
       height="344.14566"
       id="rect31490" /><rect
       x="107.55761"
       y="213.35574"
       width="680.01904"
       height="344.14566"
       id="rect31492" /><rect
       x="107.55761"
       y="213.35574"
       width="680.01904"
       height="344.14566"
       id="rect31494" /><rect
       x="107.55761"
       y="213.35574"
       width="680.01904"
       height="344.14566"
       id="rect31496" /><rect
       x="107.55761"
       y="213.35574"
       width="680.01904"
       height="344.14566"
       id="rect31498" /><rect
       x="107.55761"
       y="213.35574"
       width="680.01904"
       height="344.14566"
       id="rect31500" /><rect
       x="107.55761"
       y="213.35574"
       width="680.01904"
       height="344.14566"
       id="rect31502" /><rect
       x="107.55761"
       y="213.35574"
       width="680.01904"
       height="344.14566"
       id="rect31504" /><rect
       x="107.55761"
       y="213.35574"
       width="680.01904"
       height="344.14566"
       id="rect31506" /><rect
       x="107.55761"
       y="213.35574"
       width="680.01904"
       height="344.14566"
       id="rect31508" /><rect
       x="107.55761"
       y="213.35574"
       width="680.01904"
       height="344.14566"
       id="rect31510" /><rect
       x="107.55761"
       y="213.35574"
       width="680.01904"
       height="344.14566"
       id="rect31512" /><rect
       x="107.55761"
       y="213.35574"
       width="680.01904"
       height="344.14566"
       id="rect31514" /><rect
       x="107.55761"
       y="213.35574"
       width="680.01904"
       height="344.14566"
       id="rect31516" /><rect
       x="107.55761"
       y="213.35574"
       width="680.01904"
       height="344.14566"
       id="rect31518" /><rect
       x="107.55761"
       y="213.35574"
       width="680.01904"
       height="344.14566"
       id="rect31520" /><rect
       x="107.55761"
       y="213.35574"
       width="680.01904"
       height="344.14566"
       id="rect31522" /><rect
       x="107.55761"
       y="213.35574"
       width="680.01904"
       height="344.14566"
       id="rect31524" /><rect
       x="107.55761"
       y="213.35574"
       width="680.01904"
       height="344.14566"
       id="rect31526" /><rect
       x="107.55761"
       y="213.35574"
       width="680.01904"
       height="344.14566"
       id="rect31528" /><rect
       x="107.55761"
       y="213.35574"
       width="680.01904"
       height="344.14566"
       id="rect31530" /><rect
       x="107.55761"
       y="213.35574"
       width="680.01904"
       height="344.14566"
       id="rect31532" /><rect
       x="107.55761"
       y="213.35574"
       width="680.01904"
       height="344.14566"
       id="rect31534" /><rect
       x="107.55761"
       y="213.35574"
       width="680.01904"
       height="344.14566"
       id="rect31536" /><rect
       x="107.55761"
       y="213.35574"
       width="680.01904"
       height="344.14566"
       id="rect31538" /><rect
       x="107.55761"
       y="213.35574"
       width="680.01904"
       height="344.14566"
       id="rect31540" /><rect
       x="107.55761"
       y="213.35574"
       width="680.01904"
       height="344.14566"
       id="rect31542" /><rect
       x="107.55761"
       y="213.35574"
       width="680.01904"
       height="344.14566"
       id="rect31544" /><rect
       x="107.55761"
       y="213.35574"
       width="680.01904"
       height="344.14566"
       id="rect31546" /><rect
       x="107.55761"
       y="213.35574"
       width="680.01904"
       height="344.14566"
       id="rect31548" /><rect
       x="107.55761"
       y="213.35574"
       width="680.01904"
       height="344.14566"
       id="rect31550" /><rect
       x="107.55761"
       y="213.35574"
       width="680.01904"
       height="344.14566"
       id="rect31552" /><rect
       x="107.55761"
       y="213.35574"
       width="680.01904"
       height="344.14566"
       id="rect31554" /><rect
       x="107.55761"
       y="213.35574"
       width="680.01904"
       height="344.14566"
       id="rect31556" /><rect
       x="107.55761"
       y="213.35574"
       width="680.01904"
       height="344.14566"
       id="rect31558" /><rect
       x="107.55761"
       y="213.35574"
       width="680.01904"
       height="344.14566"
       id="rect31560" /><rect
       x="107.55761"
       y="213.35574"
       width="680.01904"
       height="344.14566"
       id="rect31562" /><rect
       x="107.55761"
       y="213.35574"
       width="680.01904"
       height="344.14566"
       id="rect31564" /><rect
       x="107.55761"
       y="213.35574"
       width="680.01904"
       height="344.14566"
       id="rect32" /><rect
       x="107.55761"
       y="213.35574"
       width="680.01904"
       height="344.14566"
       id="rect33" /><rect
       x="107.55761"
       y="213.35574"
       width="392.64627"
       height="635.28125"
       id="rect34" /><rect
       x="107.55761"
       y="213.35574"
       width="680.01904"
       height="344.14566"
       id="rect35" /><rect
       x="107.55761"
       y="213.35574"
       width="680.01904"
       height="344.14566"
       id="rect36" /><rect
       x="107.55761"
       y="213.35574"
       width="272.82059"
       height="162.96365"
       id="rect3" /><rect
       x="107.55761"
       y="213.35574"
       width="568.97534"
       height="104.87715"
       id="rect5" /><rect
       x="107.55761"
       y="213.35574"
       width="680.01904"
       height="344.14566"
       id="rect474" /><rect
       x="107.55761"
       y="213.35574"
       width="680.01904"
       height="344.14566"
       id="rect475" /><rect
       x="107.55761"
       y="213.35574"
       width="392.64627"
       height="635.28125"
       id="rect476" /><rect
       x="107.55761"
       y="213.35574"
       width="680.01904"
       height="344.14566"
       id="rect477" /><rect
       x="107.55761"
       y="213.35574"
       width="680.01904"
       height="344.14566"
       id="rect478" /><rect
       x="107.55761"
       y="213.35574"
       width="568.97534"
       height="104.87715"
       id="rect479" /><rect
       x="107.55761"
       y="213.35574"
       width="392.64627"
       height="635.28125"
       id="rect482" /><rect
       x="107.55761"
       y="213.35574"
       width="406.47571"
       height="127.06442"
       id="rect487" /><rect
       x="107.55761"
       y="213.35574"
       width="568.97534"
       height="104.87715"
       id="rect488" /><rect
       x="107.55761"
       y="213.35574"
       width="392.64627"
       height="635.28125"
       id="rect493" /><rect
       x="107.55761"
       y="213.35574"
       width="568.97534"
       height="104.87715"
       id="rect494" /><rect
       x="107.55761"
       y="213.35574"
       width="392.64627"
       height="635.28125"
       id="rect495" /><rect
       x="107.55761"
       y="213.35574"
       width="680.01904"
       height="344.14566"
       id="rect497" /><rect
       x="107.55761"
       y="213.35574"
       width="406.47571"
       height="127.06442"
       id="rect498" /><rect
       x="107.55761"
       y="213.35574"
       width="564.98163"
       height="153.15868"
       id="rect500" /><rect
       x="107.55761"
       y="213.35574"
       width="568.97534"
       height="104.87715"
       id="rect502" /><rect
       x="107.55761"
       y="213.35574"
       width="568.97534"
       height="104.87715"
       id="rect503" /><rect
       x="107.55761"
       y="213.35574"
       width="568.97534"
       height="104.87715"
       id="rect504" /><rect
       x="107.55761"
       y="213.35574"
       width="680.01904"
       height="344.14566"
       id="rect506" /><rect
       x="107.55761"
       y="213.35574"
       width="680.01904"
       height="344.14566"
       id="rect592" /><rect
       x="107.55761"
       y="213.35574"
       width="680.01904"
       height="344.14566"
       id="rect593" /><rect
       x="107.55761"
       y="213.35574"
       width="680.01904"
       height="344.14566"
       id="rect594" /><rect
       x="107.55761"
       y="213.35574"
       width="680.01904"
       height="344.14566"
       id="rect595" /><rect
       x="107.55761"
       y="213.35574"
       width="406.47571"
       height="127.06442"
       id="rect596" /><rect
       x="107.55761"
       y="213.35574"
       width="568.97534"
       height="104.87715"
       id="rect597" /><rect
       x="107.55761"
       y="213.35574"
       width="392.64627"
       height="635.28125"
       id="rect598" /><rect
       x="107.55761"
       y="213.35574"
       width="392.64627"
       height="635.28125"
       id="rect599" /><rect
       x="107.55761"
       y="213.35574"
       width="680.01904"
       height="344.14566"
       id="rect600" /><rect
       x="107.55761"
       y="213.35574"
       width="406.47571"
       height="127.06442"
       id="rect601" /><rect
       x="107.55761"
       y="213.35574"
       width="568.97534"
       height="104.87715"
       id="rect602" /><rect
       x="107.55761"
       y="213.35574"
       width="568.97534"
       height="104.87715"
       id="rect603" /><rect
       x="107.55761"
       y="213.35574"
       width="568.97534"
       height="104.87715"
       id="rect604" /><rect
       x="107.55761"
       y="213.35574"
       width="680.01904"
       height="344.14566"
       id="rect605" /><rect
       x="107.55761"
       y="213.35574"
       width="680.01904"
       height="344.14566"
       id="rect686" /><rect
       x="107.55761"
       y="213.35574"
       width="680.01904"
       height="344.14566"
       id="rect687" /><rect
       x="107.55761"
       y="213.35574"
       width="680.01904"
       height="344.14566"
       id="rect688" /><rect
       x="107.55761"
       y="213.35574"
       width="392.64627"
       height="635.28125"
       id="rect689" /><rect
       x="107.55761"
       y="213.35574"
       width="680.01904"
       height="344.14566"
       id="rect690" /><rect
       x="107.55761"
       y="213.35574"
       width="406.47571"
       height="127.06442"
       id="rect691" /><rect
       x="107.55761"
       y="213.35574"
       width="568.97534"
       height="104.87715"
       id="rect692" /><rect
       x="107.55761"
       y="213.35574"
       width="680.01904"
       height="344.14566"
       id="rect693" /><rect
       x="107.55761"
       y="213.35574"
       width="406.47571"
       height="127.06442"
       id="rect694" /><rect
       x="107.55761"
       y="213.35574"
       width="568.97534"
       height="104.87715"
       id="rect695" /><rect
       x="107.55761"
       y="213.35574"
       width="392.64627"
       height="635.28125"
       id="rect696" /><rect
       x="107.55761"
       y="213.35574"
       width="630.28925"
       height="725.10931"
       id="rect697" /><rect
       x="107.55761"
       y="213.35574"
       width="680.01904"
       height="344.14566"
       id="rect698" /><rect
       x="107.55761"
       y="213.35574"
       width="564.98163"
       height="153.15868"
       id="rect699" /><rect
       x="107.55761"
       y="213.35574"
       width="568.97534"
       height="104.87715"
       id="rect702" /><rect
       x="107.55761"
       y="213.35574"
       width="568.97534"
       height="104.87715"
       id="rect704" /><rect
       x="107.55761"
       y="213.35574"
       width="568.97534"
       height="104.87715"
       id="rect708" /><rect
       x="107.55761"
       y="213.35574"
       width="568.97534"
       height="104.87715"
       id="rect709" /><rect
       x="107.55761"
       y="213.35574"
       width="568.97534"
       height="104.87715"
       id="rect710" /><rect
       x="107.55761"
       y="213.35574"
       width="568.97534"
       height="104.87715"
       id="rect712" /><rect
       x="107.55761"
       y="213.35574"
       width="680.01904"
       height="344.14566"
       id="rect799" /><rect
       x="107.55761"
       y="213.35574"
       width="680.01904"
       height="344.14566"
       id="rect800" /><rect
       x="107.55761"
       y="213.35574"
       width="680.01904"
       height="344.14566"
       id="rect801" /><rect
       x="107.55761"
       y="213.35574"
       width="392.64627"
       height="635.28125"
       id="rect802" /><rect
       x="107.55761"
       y="213.35574"
       width="680.01904"
       height="344.14566"
       id="rect803" /><rect
       x="107.55761"
       y="213.35574"
       width="406.47571"
       height="127.06442"
       id="rect804" /><rect
       x="107.55761"
       y="213.35574"
       width="568.97534"
       height="104.87715"
       id="rect805" /><rect
       x="107.55761"
       y="213.35574"
       width="680.01904"
       height="344.14566"
       id="rect806" /><rect
       x="107.55761"
       y="213.35574"
       width="406.47571"
       height="127.06442"
       id="rect807" /><rect
       x="107.55761"
       y="213.35574"
       width="568.97534"
       height="104.87715"
       id="rect808" /><rect
       x="107.55761"
       y="213.35574"
       width="392.64627"
       height="635.28125"
       id="rect809" /><rect
       x="107.55761"
       y="213.35574"
       width="568.97534"
       height="104.87715"
       id="rect810" /><rect
       x="107.55761"
       y="213.35574"
       width="680.01904"
       height="344.14566"
       id="rect811" /><rect
       x="107.55761"
       y="213.35574"
       width="680.01904"
       height="344.14566"
       id="rect892" /><rect
       x="107.55761"
       y="213.35574"
       width="680.01904"
       height="344.14566"
       id="rect893" /><rect
       x="107.55761"
       y="213.35574"
       width="680.01904"
       height="344.14566"
       id="rect894" /><rect
       x="107.55761"
       y="213.35574"
       width="392.64627"
       height="635.28125"
       id="rect895" /><rect
       x="107.55761"
       y="213.35574"
       width="680.01904"
       height="344.14566"
       id="rect896" /><rect
       x="107.55761"
       y="213.35574"
       width="406.47571"
       height="127.06442"
       id="rect897" /><rect
       x="107.55761"
       y="213.35574"
       width="568.97534"
       height="104.87715"
       id="rect898" /><rect
       x="107.55761"
       y="213.35574"
       width="680.01904"
       height="344.14566"
       id="rect899" /><rect
       x="107.55761"
       y="213.35574"
       width="406.47571"
       height="127.06442"
       id="rect900" /><rect
       x="107.55761"
       y="213.35574"
       width="568.97534"
       height="104.87715"
       id="rect901" /><rect
       x="107.55761"
       y="213.35574"
       width="392.64627"
       height="635.28125"
       id="rect902" /><rect
       x="107.55761"
       y="213.35574"
       width="568.97534"
       height="104.87715"
       id="rect903" /><rect
       x="107.55761"
       y="213.35574"
       width="680.01904"
       height="344.14566"
       id="rect904" /><rect
       x="107.55761"
       y="213.35574"
       width="680.01904"
       height="344.14566"
       id="rect985" /><rect
       x="107.55761"
       y="213.35574"
       width="680.01904"
       height="344.14566"
       id="rect986" /><rect
       x="107.55761"
       y="213.35574"
       width="680.01904"
       height="344.14566"
       id="rect987" /><rect
       x="107.55761"
       y="213.35574"
       width="392.64627"
       height="635.28125"
       id="rect988" /><rect
       x="107.55761"
       y="213.35574"
       width="680.01904"
       height="344.14566"
       id="rect989" /><rect
       x="107.55761"
       y="213.35574"
       width="406.47571"
       height="127.06442"
       id="rect990" /><rect
       x="107.55761"
       y="213.35574"
       width="568.97534"
       height="104.87715"
       id="rect991" /><rect
       x="107.55761"
       y="213.35574"
       width="680.01904"
       height="344.14566"
       id="rect992" /><rect
       x="107.55761"
       y="213.35574"
       width="406.47571"
       height="127.06442"
       id="rect993" /><rect
       x="107.55761"
       y="213.35574"
       width="568.97534"
       height="104.87715"
       id="rect994" /><rect
       x="107.55761"
       y="213.35574"
       width="392.64627"
       height="635.28125"
       id="rect995" /><rect
       x="107.55761"
       y="213.35574"
       width="568.97534"
       height="104.87715"
       id="rect996" /><rect
       x="107.55761"
       y="213.35574"
       width="680.01904"
       height="344.14566"
       id="rect997" /><rect
       x="107.55761"
       y="213.35574"
       width="630.28925"
       height="725.10931"
       id="rect998" /><rect
       x="107.55761"
       y="213.35574"
       width="680.01904"
       height="344.14566"
       id="rect999" /><rect
       x="107.55761"
       y="213.35574"
       width="392.64627"
       height="635.28125"
       id="rect1001" /><rect
       x="107.55761"
       y="213.35574"
       width="630.28925"
       height="725.10931"
       id="rect1003" /><rect
       x="107.55761"
       y="213.35574"
       width="564.98163"
       height="153.15868"
       id="rect1008" /><rect
       x="107.55761"
       y="213.35574"
       width="680.01904"
       height="344.14566"
       id="rect1012" /><rect
       x="107.55761"
       y="213.35574"
       width="406.47571"
       height="127.06442"
       id="rect1013" /><rect
       x="107.55761"
       y="213.35574"
       width="630.28925"
       height="725.10931"
       id="rect1014" /><rect
       x="107.55761"
       y="213.35574"
       width="568.97534"
       height="104.87715"
       id="rect1017" /><rect
       x="107.55761"
       y="213.35574"
       width="568.97534"
       height="104.87715"
       id="rect1019" /><rect
       x="107.55761"
       y="213.35574"
       width="406.47571"
       height="127.06442"
       id="rect1020" /><rect
       x="107.55761"
       y="213.35574"
       width="680.01904"
       height="344.14566"
       id="rect1021" /><rect
       x="107.55761"
       y="213.35574"
       width="680.01904"
       height="344.14566"
       id="rect1024" /><rect
       x="107.55761"
       y="213.35574"
       width="680.01904"
       height="344.14566"
       id="rect1025" /><rect
       x="107.55761"
       y="213.35574"
       width="680.01904"
       height="344.14566"
       id="rect1026" /><rect
       x="107.55761"
       y="213.35574"
       width="680.01904"
       height="344.14566"
       id="rect1029" /><rect
       x="107.55761"
       y="213.35574"
       width="630.28925"
       height="725.10931"
       id="rect1030" /><rect
       x="107.55761"
       y="213.35574"
       width="392.64627"
       height="635.28125"
       id="rect1033" /><rect
       x="107.55761"
       y="213.35574"
       width="680.01904"
       height="344.14566"
       id="rect1034" /><rect
       x="107.55761"
       y="213.35574"
       width="568.97534"
       height="104.87715"
       id="rect1035" /><rect
       x="107.55761"
       y="213.35574"
       width="567.56818"
       height="256.21582"
       id="rect1037" /><rect
       x="107.55761"
       y="213.35574"
       width="406.47571"
       height="127.06442"
       id="rect1038" /><rect
       x="107.55761"
       y="213.35574"
       width="392.64627"
       height="635.28125"
       id="rect1039" /><rect
       x="107.55761"
       y="213.35574"
       width="680.01904"
       height="344.14566"
       id="rect1043" /><rect
       x="107.55761"
       y="213.35574"
       width="630.28925"
       height="725.10931"
       id="rect1046" /><rect
       x="107.55761"
       y="213.35574"
       width="630.28925"
       height="725.10931"
       id="rect1047" /><rect
       x="107.55761"
       y="213.35574"
       width="680.01904"
       height="344.14566"
       id="rect1128" /><rect
       x="107.55761"
       y="213.35574"
       width="680.01904"
       height="344.14566"
       id="rect1129" /><rect
       x="107.55761"
       y="213.35574"
       width="680.01904"
       height="344.14566"
       id="rect1130" /><rect
       x="107.55761"
       y="213.35574"
       width="630.28925"
       height="725.10931"
       id="rect1131" /><rect
       x="107.55761"
       y="213.35574"
       width="406.47571"
       height="127.06442"
       id="rect1132" /><rect
       x="107.55761"
       y="213.35574"
       width="680.01904"
       height="344.14566"
       id="rect1133" /><rect
       x="107.55761"
       y="213.35574"
       width="392.64627"
       height="635.28125"
       id="rect1134" /><rect
       x="107.55761"
       y="213.35574"
       width="630.28925"
       height="725.10931"
       id="rect1135" /><rect
       x="107.55761"
       y="213.35574"
       width="564.98163"
       height="153.15868"
       id="rect1136" /><rect
       x="107.55761"
       y="213.35574"
       width="680.01904"
       height="344.14566"
       id="rect1137" /><rect
       x="107.55761"
       y="213.35574"
       width="406.47571"
       height="127.06442"
       id="rect1138" /><rect
       x="107.55761"
       y="213.35574"
       width="576.04486"
       height="479.76938"
       id="rect1139" /><rect
       x="107.55761"
       y="213.35574"
       width="568.97534"
       height="104.87715"
       id="rect1140" /><rect
       x="107.55761"
       y="213.35574"
       width="568.97534"
       height="104.87715"
       id="rect1141" /><rect
       x="107.55761"
       y="213.35574"
       width="406.47571"
       height="127.06442"
       id="rect1142" /><rect
       x="107.55761"
       y="213.35574"
       width="630.28925"
       height="725.10931"
       id="rect1143" /><rect
       x="107.55761"
       y="213.35574"
       width="680.01904"
       height="344.14566"
       id="rect197" /><rect
       x="107.55761"
       y="213.35574"
       width="680.01904"
       height="344.14566"
       id="rect198" /><rect
       x="107.55761"
       y="213.35574"
       width="392.64627"
       height="635.28125"
       id="rect199" /><rect
       x="107.55761"
       y="213.35574"
       width="680.01904"
       height="344.14566"
       id="rect200" /><rect
       x="107.55761"
       y="213.35574"
       width="680.01904"
       height="344.14566"
       id="rect201" /><rect
       x="107.55761"
       y="213.35574"
       width="568.97534"
       height="104.87715"
       id="rect202" /><rect
       x="107.55761"
       y="213.35574"
       width="392.64627"
       height="635.28125"
       id="rect129" /><rect
       x="107.55761"
       y="213.35574"
       width="680.01904"
       height="344.14566"
       id="rect130" /><rect
       x="107.55761"
       y="213.35574"
       width="568.97534"
       height="104.87715"
       id="rect134" /></defs><g
     inkscape:label="Layer 1"
     inkscape:groupmode="layer"
     id="layer1"
     transform="translate(535.20808,-27.267097)"><g
       id="text125"
       style="font-size:40px;line-height:45.3075px;font-family:'AUTHENTIC Sans';-inkscape-font-specification:'AUTHENTIC Sans';letter-spacing:0px;white-space:pre;fill:#00c589"
       transform="matrix(0.2180164,0,0,0.2180164,-452.84053,18.05362)"
       aria-label="EXHIBITION &amp; PERFORMANCES"><path
         style="font-family:'VTC Marsha';-inkscape-font-specification:'VTC Marsha'"
         d="m 109.71664,247.04922 h 25.04 v -5.76 h -16.4 v -6.32 h 14.64 v -5.28 h -14.64 v -4.88 h 16 v -5.76 h -24.64 z m 59.91999,0 -12.64,-15.28 11.44,-12.72 h -8.28 l -7.12,7.92 -6.56,-7.92 h -10.64 l 11.64,14.08 -12.48,13.92 h 8.28 l 8.2,-9.12 7.52,9.12 z m 1.15995,0 h 8.64 v -11.84 h 10 v 11.84 h 8.64 v -28 h -8.64 v 10.88 h -10 v -10.88 h -8.64 z m 31.59996,-28 v 28 h 8.64 v -28 z m 12.95998,28 h 17.72 c 5.64,0 8.68,-2.64 8.68,-7.88 0,-3.2 -1.92,-6.16 -6.24,-6.84 4.28,-0.44 5.04,-4 5.04,-6.28 0,-4.12 -2.88,-7 -8.2,-7 h -17 z m 8.64,-17.36 v -4.88 h 5.96 c 1.56,0 2.44,0.88 2.44,2.44 0,1.56 -0.88,2.44 -2.44,2.44 z m 0,11.6 v -6.32 h 6.44 c 2.04,0 3.16,1.12 3.16,3.16 0,2.04 -1.12,3.16 -3.16,3.16 z m 20.79992,-22.24 v 28 h 8.64 v -28 z m 11.35998,5.76 h 8.4 v 22.24 h 8.64 v -22.24 h 8.4 v -5.76 h -25.44 z m 28.15998,-5.76 v 28 h 8.64 v -28 z m 26.39998,28.4 c 9.12,0 14.48,-5.04 14.48,-14.4 0,-9.36 -5.4,-14.4 -14.48,-14.4 -9.08,0 -14.52,5.04 -14.52,14.4 0,9.36 5.44,14.4 14.52,14.4 z m -5.4,-14.4 c 0,-5.6 1.92,-9.04 5.4,-9.04 3.48,0 5.36,3.44 5.36,9.04 0,5.6 -1.88,9.04 -5.36,9.04 -3.48,0 -5.4,-3.44 -5.4,-9.04 z m 23.11997,14 h 5.76 v -18.4 l 14.36,18.4 h 8.44 v -28 h -5.76 v 16.76 l -13.04,-16.76 h -9.76 z m 38.03991,-7.32 c 0,5.04 4.84,7.72 12.6,7.72 2.64,0 6.32,-0.8 8.84,-2.16 l 1.68,1.76 h 11.36 l -5.72,-6.12 0.24,-0.2 c 2,-2.64 3.48,-5.8 4.12,-9.28 l -5.8,-1.92 c -0.32,2.48 -1.28,4.92 -2.6,7.04 l -3.44,-3.64 c 3.28,-1.48 5.36,-4.04 5.36,-7.24 0,-4.6 -4.12,-7.04 -10.68,-7.04 -5.92,0 -10.16,2.44 -10.16,7.2 0,2.16 0.72,4.08 2.12,5.4 l 0.8,0.76 c -5,1.28 -8.72,4.32 -8.72,7.72 z m 15.12,-14.32 c 0,-1.4 1.2,-2.76 2.92,-2.76 2.64,0 3.72,1.56 3.72,2.96 0,1.84 -1.24,3.2 -3.6,4.44 l -1.24,-1.2 c -0.88,-0.8 -1.8,-2.04 -1.8,-3.44 z m -7.04,13.56 c 0,-2.12 1.52,-3.6 3.36,-4.36 l 6.44,6.84 c -0.6,0.64 -2.64,1.4 -4.64,1.4 -2.76,0 -5.16,-1.88 -5.16,-3.88 z"
         id="path3" /><path
         style="font-family:'VTC Marsha';-inkscape-font-specification:'VTC Marsha'"
         d="m 109.71664,266.30581 v 28 h 8.64 v -11.12 h 9.16 c 5.48,0 8.44,-2.96 8.44,-8.44 0,-5.48 -2.96,-8.44 -8.44,-8.44 z m 8.64,5.76 h 6.04 c 1.88,0 2.92,1.04 2.92,2.92 0,1.88 -1.04,2.92 -2.92,2.92 h -6.04 z m 20.43997,22.24 h 25.04 v -5.76 h -16.4 v -6.32 h 14.64 v -5.28 h -14.64 v -4.88 h 16 v -5.76 h -24.64 z m 36.99999,0 v -11.12 h 3.48 l 5.76,11.12 h 9.64 l -6.8,-12.6 c 3.88,-1.68 5.04,-4.68 5.04,-7.8 0,-4.36 -3.04,-7.6 -8.68,-7.6 h -17.08 v 28 z m 0,-22.24 h 6.04 c 1.88,0 2.92,1.04 2.92,2.92 0,1.88 -1.04,2.92 -2.92,2.92 h -6.04 z m 21.07992,22.24 h 8.64 v -12.08 h 14.64 v -5.28 h -14.64 v -4.88 h 16 v -5.76 h -24.64 z m 40.59996,0.4 c 9.12,0 14.48,-5.04 14.48,-14.4 0,-9.36 -5.4,-14.4 -14.48,-14.4 -9.08,0 -14.52,5.04 -14.52,14.4 0,9.36 5.44,14.4 14.52,14.4 z m -5.4,-14.4 c 0,-5.6 1.92,-9.04 5.4,-9.04 3.48,0 5.36,3.44 5.36,9.04 0,5.6 -1.88,9.04 -5.36,9.04 -3.48,0 -5.4,-3.44 -5.4,-9.04 z m 31.75997,14 v -11.12 h 3.48 l 5.76,11.12 h 9.64 l -6.8,-12.6 c 3.88,-1.68 5.04,-4.68 5.04,-7.8 0,-4.36 -3.04,-7.6 -8.68,-7.6 h -17.08 v 28 z m 0,-22.24 h 6.04 c 1.88,0 2.92,1.04 2.92,2.92 0,1.88 -1.04,2.92 -2.92,2.92 h -6.04 z m 21.07993,22.24 h 5.76 v -17.24 l 9.08,13.08 h 0.76 l 9.88,-13.44 v 17.6 h 8.64 v -28 h -8.16 l -9.16,12.2 -7.88,-12.2 h -8.92 z m 35.95994,0 h 6.16 l 2.32,-6.52 h 10.88 l 2.6,6.52 h 9.04 l -11.2,-28 h -9.8 z m 10.56,-12.28 3.04,-8.6 3.44,8.6 z m 21.95998,12.28 h 5.76 v -18.4 l 14.36,18.4 h 8.44 v -28 h -5.76 v 16.76 l -13.04,-16.76 h -9.76 z m 54.07994,-9.6 c -0.96,2.96 -3.08,4.64 -6.24,4.64 -4.44,0 -6.92,-3.44 -6.92,-9.04 0,-5.6 2.48,-9.04 6.92,-9.04 3.16,0 5.28,1.68 6.24,4.64 h 6.24 c -1.48,-6.52 -6.48,-10 -14,-10 -9.08,0 -14.52,5.04 -14.52,14.4 0,9.36 5.44,14.4 14.52,14.4 7.56,0 12.56,-3.48 14.04,-10 z m 8.83998,9.6 h 25.04 v -5.76 h -16.4 v -6.32 h 14.64 v -5.28 h -14.64 v -4.88 h 16 v -5.76 h -24.64 z m 41.11993,0.4 c -7.44,0 -13.8,-3.12 -14.6,-10.4 h 6.24 c 0.2,1.68 1.68,5.12 7.6,5.12 2.72,0 5.44,-0.52 5.44,-2.44 0,-1.96 -2.28,-2.36 -5.92,-2.88 -9.12,-1.32 -12.2,-4.72 -12.2,-9.4 0,-5 4.76,-8.8 12.48,-8.8 9.72,0 13.92,5.52 13.92,10 h -5.76 c 0,-2.76 -2.56,-4.8 -6.76,-4.8 -3,0 -4.72,1 -4.72,2.56 0,1.6 1.44,2.4 6.28,3.12 6.88,1 12.12,3.16 12.12,9.36 0,4.88 -4.68,8.56 -14.12,8.56 z"
         id="path4" /></g><g
       id="text129"
       style="font-size:66.6667px;line-height:0.95;font-family:'AUTHENTIC Sans';-inkscape-font-specification:'AUTHENTIC Sans';letter-spacing:2.16px;white-space:pre;fill:#00c589"
       transform="matrix(0.46001188,0,0,0.46001188,-584.68539,-63.98062)"
       aria-label="RESEARCH&#10;WEEK"><path
         style="font-family:'VTC Marsha';-inkscape-font-specification:'VTC Marsha'"
         d="m 125.55665,263.42216 v -18.53334 h 5.8 l 9.60001,18.53334 h 16.06667 l -11.33334,-21.00001 c 6.46667,-2.8 8.40001,-7.8 8.40001,-13.00001 0,-7.26667 -5.06667,-12.66667 -14.46668,-12.66667 h -28.46668 v 46.66669 z m 0,-37.06668 h 10.06667 c 3.13334,0 4.86667,1.73333 4.86667,4.86666 0,3.13334 -1.73333,4.86667 -4.86667,4.86667 h -10.06667 z m 37.29323,37.06668 h 41.73335 v -9.6 h -27.33335 v -10.53334 h 24.40002 v -8.80001 h -24.40002 v -8.13333 h 26.66668 v -9.60001 h -41.06668 z m 70.69322,0.66667 c -12.4,0 -23.00001,-5.2 -24.33334,-17.33334 h 10.4 c 0.33333,2.8 2.8,8.53333 12.66667,8.53333 4.53334,0 9.06668,-0.86666 9.06668,-4.06666 0,-3.26667 -3.80001,-3.93334 -9.86668,-4.80001 -15.2,-2.2 -20.33334,-7.86667 -20.33334,-15.66667 0,-8.33334 7.93334,-14.66668 20.80001,-14.66668 16.20001,0 23.20001,9.20001 23.20001,16.66668 h -9.6 c 0,-4.6 -4.26667,-8.00001 -11.26667,-8.00001 -5.00001,0 -7.86668,1.66667 -7.86668,4.26667 0,2.66667 2.40001,4.00001 10.46668,5.20001 11.46667,1.66666 20.20001,5.26667 20.20001,15.6 0,8.13334 -7.80001,14.26668 -23.53335,14.26668 z m 30.82659,-0.66667 h 41.73335 v -9.6 h -27.33335 v -10.53334 h 24.40002 v -8.80001 h -24.40002 v -8.13333 h 26.66668 v -9.60001 h -41.06668 z m 45.29333,0 h 10.26667 l 3.86667,-10.86667 h 18.13334 l 4.33334,10.86667 h 15.06667 l -18.66668,-46.66669 h -16.33334 z m 17.60001,-20.46668 5.06667,-14.33334 5.73333,14.33334 z m 53.15998,20.46668 v -18.53334 h 5.80001 l 9.6,18.53334 h 16.06668 l -11.33334,-21.00001 c 6.46667,-2.8 8.4,-7.8 8.4,-13.00001 0,-7.26667 -5.06667,-12.66667 -14.46667,-12.66667 h -28.46668 v 46.66669 z m 0,-37.06668 h 10.06668 c 3.13333,0 4.86667,1.73333 4.86667,4.86666 0,3.13334 -1.73334,4.86667 -4.86667,4.86667 h -10.06668 z m 71.42648,21.06667 c -1.6,4.93334 -5.13333,7.73334 -10.4,7.73334 -7.40001,0 -11.53334,-5.73334 -11.53334,-15.06667 0,-9.33334 4.13333,-15.06668 11.53334,-15.06668 5.26667,0 8.8,2.8 10.4,7.73334 h 10.40001 c -2.46667,-10.86667 -10.80001,-16.66668 -23.33335,-16.66668 -15.13334,0 -24.20001,8.40001 -24.20001,24.00002 0,15.6 9.06667,24.00001 24.20001,24.00001 12.60001,0 20.93335,-5.8 23.40001,-16.66668 z m 16.8933,16.00001 h 14.40001 v -19.73334 h 16.66668 v 19.73334 h 14.4 v -46.66669 h -14.4 v 18.13334 H 483.1428 v -18.13334 h -14.40001 z"
         id="path1" /><path
         style="font-family:'VTC Marsha';-inkscape-font-specification:'VTC Marsha'"
         d="m 163.69,283.33732 -6.46667,31.53335 -7.4,-31.53335 h -13.46667 l -6.80001,33.00002 -7.73334,-33.00002 h -14.26667 l 10.93334,46.66669 h 17.20001 l 5.53334,-27.00001 6.6,27.00001 H 163.69 l 9.60001,-46.66669 z m 15.82656,46.66669 h 41.73335 V 320.404 h -27.33334 v -10.53333 h 24.40001 v -8.80001 h -24.40001 v -8.13334 h 26.66668 v -9.6 h -41.06669 z m 49.42667,0 h 41.73335 V 320.404 h -27.33335 v -10.53333 h 24.40002 v -8.80001 h -24.40002 v -8.13334 h 26.66668 v -9.6 h -41.06668 z m 49.42665,0 v -46.66669 h 14.40001 V 304.004 l 16.33334,-20.66668 h 12.40001 l -12.60001,15.93334 16.60001,30.73335 h -14.40001 l -10.46667,-20.26668 -7.86667,9.93334 v 10.33334 z"
         id="path2" /></g><g
       id="g133"
       transform="matrix(2.1949234,-0.59332996,0.58812795,2.2143375,-1234.9044,3.3633757)"
       style="stroke-width:0.438139"><rect
         style="fill:#ffffff;fill-opacity:1;stroke:#00c589;stroke-width:0.21907;stroke-dasharray:none;stroke-opacity:1"
         id="rect131"
         width="20.562975"
         height="8.8365936"
         x="314.67914"
         y="126.09821"
         ry="3.461446" /><path
         d="m 108.95664,244.39547 h 19.64 v -3.68 h -15.08 c 0.96,-2.2 2.48,-4.08 7.44,-7.84 6.12,-4.68 7.44,-7.4 7.44,-10.28 0,-4.52 -3.2,-8.28 -9.24,-8.28 -5.84,0 -9.6,3.52 -10.24,9.12 l 3.6,0.68 c 0.24,-4.12 2.56,-6.32 6.48,-6.32 3.4,0 5.68,1.64 5.68,4.72 0,2.44 -1.4,4.4 -6.2,8.08 -6.52,4.92 -9.12,8.8 -9.52,13.8 z m 34.39995,0.56 c 6.8,0 10.16,-5.4 10.16,-15.08 0,-9.76 -3.36,-15.16 -10.16,-15.16 -6.8,0 -10.16,5.4 -10.16,15.16 0,9.68 3.36,15.08 10.16,15.08 z m 0,-3.44 c -3.96,0 -6.52,-3.64 -6.52,-11.64 0,-8.2 2.52,-11.72 6.52,-11.72 4,0 6.52,3.52 6.52,11.72 0,8 -2.56,11.64 -6.52,11.64 z m 13.39996,2.88 h 19.64 v -3.68 h -15.08 c 0.96,-2.2 2.48,-4.08 7.44,-7.84 6.12,-4.68 7.44,-7.4 7.44,-10.28 0,-4.52 -3.2,-8.28 -9.24,-8.28 -5.84,0 -9.6,3.52 -10.24,9.12 l 3.6,0.68 c 0.24,-4.12 2.56,-6.32 6.48,-6.32 3.4,0 5.68,1.64 5.68,4.72 0,2.44 -1.4,4.4 -6.2,8.08 -6.52,4.92 -9.12,8.8 -9.52,13.8 z m 36.99995,0 h 3.52 v -7 h 3.92 v -3.4 h -3.92 v -19.24 h -3.36 l -13.64,18.92 v 3.72 h 13.48 z m -9.6,-10.4 9.6,-13.2 v 13.2 z"
         id="text133"
         style="font-size:40px;line-height:1;font-family:'AUTHENTIC Sans';-inkscape-font-specification:'AUTHENTIC Sans';letter-spacing:0px;white-space:pre;fill:#00c589"
         transform="matrix(0.16578439,0,0,0.16578439,298.86555,92.334255)"
         aria-label="2024" /></g></g><style
     type="text/css"
     id="style1">
	.st0{fill:#FFFFFF;}
	.st1{fill:none;}
</style></svg>
